<svg width="20" height="21" viewBox="0 0 20 21" fill="none" xmlns="http://www.w3.org/2000/svg">
<path d="M1 8.95634C1 7.72197 1.56989 6.55675 2.54424 5.79893L7.54424 1.91004C8.98868 0.786581 11.0113 0.786583 12.4558 1.91004L17.4558 5.79893C18.4301 6.55675 19 7.72197 19 8.95634V18C19 18.5304 18.7893 19.0391 18.4142 19.4142C18.0391 19.7893 17.5304 20 17 20H3C2.46957 20 1.96086 19.7893 1.58579 19.4142C1.21071 19.0391 1 18.5304 1 18V8.95634Z" fill="#FAFAFA" stroke="#111111" stroke-width="2" stroke-linecap="round" stroke-linejoin="round"/>
<path d="M7 20V13C7 11.3431 8.34315 10 10 10V10C11.6569 10 13 11.3431 13 13V20" stroke="#111111" stroke-width="2" stroke-linecap="round" stroke-linejoin="round"/>
</svg>
