<svg width="46" height="46" viewBox="0 0 46 46" fill="none" xmlns="http://www.w3.org/2000/svg">
<path d="M23.3344 0.453512L22.8857 23.0968L31.9736 2.35236L22.8939 23.1004L39.2284 7.41276L22.9 23.1067L43.9946 14.8642L22.9033 23.115L45.5464 23.5725L22.9031 23.1238L43.6475 32.2117L22.8995 23.132L38.5871 39.4665L22.8931 23.1381L31.1357 44.2327L22.8848 23.1414L22.4274 45.7844L22.8761 23.1412L13.7882 43.8856L22.8679 23.1376L6.53332 38.8252L22.8618 23.1312L1.76718 31.3737L22.8585 23.1229L0.215433 22.6655L22.8587 23.1141L2.11428 14.0262L22.8623 23.106L7.17468 6.7714L22.8687 23.0999L14.6261 2.00526L22.877 23.0966L23.3344 0.453512Z" stroke="#E6C61E" stroke-width="2"/>
</svg>
