<svg width="37" height="36" viewBox="0 0 37 36" fill="none" xmlns="http://www.w3.org/2000/svg">
<path d="M18.5 0L18.5035 17.9823L25.3883 1.37016L18.51 17.985L31.2279 5.27208L18.515 17.99L35.1298 11.1117L18.5177 17.9965L36.5 18L18.5177 18.0035L35.1298 24.8883L18.515 18.01L31.2279 30.7279L18.51 18.015L25.3883 34.6298L18.5035 18.0177L18.5 36L18.4965 18.0177L11.6117 34.6298L18.49 18.015L5.77208 30.7279L18.485 18.01L1.87016 24.8883L18.4823 18.0035L0.5 18L18.4823 17.9965L1.87016 11.1117L18.485 17.99L5.77208 5.27208L18.49 17.985L11.6117 1.37016L18.4965 17.9823L18.5 0Z" stroke="#1CCD83" stroke-width="2"/>
</svg>
