<svg width="68" height="68" viewBox="0 0 68 68" fill="none" xmlns="http://www.w3.org/2000/svg">
<path d="M19.8327 31.1665L31.166 5.6665C33.4204 5.6665 35.5824 6.56204 37.1764 8.1561C38.7705 9.75016 39.666 11.9122 39.666 14.1665V25.4998H55.7027C56.5241 25.4905 57.3377 25.6599 58.0871 25.9963C58.8366 26.3326 59.5039 26.8279 60.0429 27.4478C60.582 28.0677 60.9798 28.7973 61.2088 29.5862C61.4378 30.3751 61.4926 31.2043 61.3693 32.0165L57.4593 57.5165C57.2544 58.8677 56.5681 60.0994 55.5267 60.9845C54.4854 61.8697 53.1593 62.3486 51.7927 62.3332H19.8327M19.8327 31.1665V62.3332M19.8327 31.1665H11.3327C9.82979 31.1665 8.38845 31.7635 7.32574 32.8262C6.26304 33.8889 5.66602 35.3303 5.66602 36.8332V56.6665C5.66602 58.1694 6.26304 59.6107 7.32574 60.6734C8.38845 61.7362 9.82979 62.3332 11.3327 62.3332H19.8327" stroke="#E6C61E" stroke-width="4" stroke-linecap="round" stroke-linejoin="round"/>
</svg>
