<svg width="16" height="16" viewBox="0 0 16 16" fill="none" xmlns="http://www.w3.org/2000/svg">
<g clip-path="url(#clip0_2301_634)">
<path d="M8.00065 10.6668C9.47341 10.6668 10.6673 9.47292 10.6673 8.00016C10.6673 6.5274 9.47341 5.3335 8.00065 5.3335C6.52789 5.3335 5.33398 6.5274 5.33398 8.00016C5.33398 9.47292 6.52789 10.6668 8.00065 10.6668Z" stroke="#FAFAFA" stroke-linecap="round" stroke-linejoin="round"/>
<path d="M10.6673 5.33357V8.6669C10.6673 9.19734 10.878 9.70605 11.2531 10.0811C11.6282 10.4562 12.1369 10.6669 12.6673 10.6669C13.1978 10.6669 13.7065 10.4562 14.0815 10.0811C14.4566 9.70605 14.6673 9.19734 14.6673 8.6669V8.00024C14.6672 6.49559 14.1581 5.03522 13.2228 3.85659C12.2875 2.67796 10.981 1.85039 9.51575 1.50844C8.05048 1.16648 6.51261 1.33027 5.15222 1.97315C3.79183 2.61603 2.68892 3.70021 2.02283 5.04939C1.35674 6.39856 1.16663 7.9334 1.48344 9.40431C1.80024 10.8752 2.60531 12.1957 3.76774 13.1511C4.93018 14.1064 6.38161 14.6405 7.88604 14.6663C9.39046 14.6922 10.8594 14.2084 12.054 13.2936" stroke="#FAFAFA" stroke-linecap="round" stroke-linejoin="round"/>
</g>
<defs>
<clipPath id="clip0_2301_634">
<rect width="16" height="16" fill="white"/>
</clipPath>
</defs>
</svg>
