<svg width="239" height="32" viewBox="0 0 239 32" fill="none" xmlns="http://www.w3.org/2000/svg">
<path d="M78.4279 10.348C77.9799 8.136 76.1599 5.28 71.4839 5.28C67.7879 5.28 64.7359 8.024 64.7359 11.356C64.7359 14.324 66.7519 16.312 69.7759 16.928L72.5759 17.516C74.2839 17.88 75.2359 18.916 75.2359 20.204C75.2359 21.744 74.0039 22.948 71.6239 22.948C68.7679 22.948 67.2839 21.044 67.0879 18.972L63.9519 19.868C64.2599 22.724 66.5839 25.972 71.6239 25.972C76.1599 25.972 78.6519 23.032 78.6519 19.952C78.6519 17.152 76.7759 14.94 73.2759 14.24L70.4199 13.652C68.8799 13.316 68.0959 12.364 68.0959 11.104C68.0959 9.592 69.4959 8.248 71.5119 8.248C74.1719 8.248 75.2079 10.068 75.4039 11.3L78.4279 10.348Z" fill="black"/>
<path d="M86.2622 23.06C84.2742 23.06 82.4542 21.548 82.4542 18.72C82.4542 15.892 84.2742 14.436 86.2622 14.436C88.2782 14.436 90.0702 15.892 90.0702 18.72C90.0702 21.576 88.2782 23.06 86.2622 23.06ZM86.2622 11.496C82.2022 11.496 79.2062 14.548 79.2062 18.72C79.2062 22.92 82.2022 25.972 86.2622 25.972C90.3502 25.972 93.3462 22.92 93.3462 18.72C93.3462 14.548 90.3502 11.496 86.2622 11.496Z" fill="black"/>
<path d="M101.021 14.492C103.093 14.492 104.017 15.836 104.325 17.04L107.237 15.976C106.677 13.792 104.661 11.496 100.993 11.496C97.0731 11.496 94.0211 14.52 94.0211 18.72C94.0211 22.864 97.0731 25.972 101.077 25.972C104.661 25.972 106.705 23.648 107.349 21.52L104.493 20.484C104.185 21.52 103.205 23.004 101.077 23.004C99.0331 23.004 97.2691 21.464 97.2691 18.72C97.2691 15.976 99.0331 14.492 101.021 14.492Z" fill="black"/>
<path d="M112.053 25.552V11.916H108.833V25.552H112.053ZM108.329 7.128C108.329 8.304 109.281 9.228 110.429 9.228C111.605 9.228 112.557 8.304 112.557 7.128C112.557 5.952 111.605 5 110.429 5C109.281 5 108.329 5.952 108.329 7.128Z" fill="black"/>
<path d="M114.004 21.856C114.004 24.012 115.768 25.972 118.624 25.972C120.836 25.972 122.18 24.852 122.824 23.816C122.824 24.908 122.936 25.468 122.964 25.552H125.988C125.96 25.412 125.82 24.6 125.82 23.368V16.592C125.82 13.876 124.224 11.496 120.024 11.496C116.664 11.496 114.536 13.596 114.284 15.948L117.252 16.62C117.392 15.248 118.344 14.156 120.052 14.156C121.844 14.156 122.628 15.08 122.628 16.228C122.628 16.704 122.404 17.096 121.62 17.208L118.12 17.74C115.796 18.076 114.004 19.42 114.004 21.856ZM119.24 23.424C117.952 23.424 117.252 22.584 117.252 21.66C117.252 20.54 118.064 19.98 119.072 19.812L122.628 19.28V19.896C122.628 22.556 121.06 23.424 119.24 23.424Z" fill="black"/>
<path d="M131.594 25.552V5.28H128.346V25.552H131.594Z" fill="black"/>
<path d="M149.029 25.972C154.097 25.972 157.121 22.752 158.017 19.392L154.937 18.384C154.265 20.624 152.361 22.752 149.029 22.752C145.641 22.752 142.449 20.288 142.449 15.64C142.449 10.824 145.725 8.444 149.001 8.444C152.333 8.444 154.181 10.376 154.769 12.784L157.933 11.72C157.037 8.248 154.041 5.28 149.001 5.28C143.849 5.28 139.005 9.172 139.005 15.64C139.005 22.108 143.681 25.972 149.029 25.972Z" fill="black"/>
<path d="M165.247 23.06C163.259 23.06 161.439 21.548 161.439 18.72C161.439 15.892 163.259 14.436 165.247 14.436C167.263 14.436 169.055 15.892 169.055 18.72C169.055 21.576 167.263 23.06 165.247 23.06ZM165.247 11.496C161.187 11.496 158.191 14.548 158.191 18.72C158.191 22.92 161.187 25.972 165.247 25.972C169.335 25.972 172.331 22.92 172.331 18.72C172.331 14.548 169.335 11.496 165.247 11.496Z" fill="black"/>
<path d="M177.318 17.684C177.318 15.892 178.298 14.464 180.146 14.464C182.19 14.464 182.946 15.808 182.946 17.488V25.552H186.194V16.928C186.194 13.932 184.598 11.524 181.266 11.524C179.754 11.524 178.13 12.168 177.234 13.736V11.916H174.07V25.552H177.318V17.684Z" fill="black"/>
<path d="M191.996 17.684C191.996 15.892 192.976 14.464 194.824 14.464C196.868 14.464 197.624 15.808 197.624 17.488V25.552H200.872V16.928C200.872 13.932 199.276 11.524 195.944 11.524C194.432 11.524 192.808 12.168 191.912 13.736V11.916H188.748V25.552H191.996V17.684Z" fill="black"/>
<path d="M205.694 17.236C205.806 15.78 206.982 14.212 209.026 14.212C211.266 14.212 212.33 15.64 212.386 17.236H205.694ZM212.75 20.792C212.302 22.136 211.294 23.172 209.334 23.172C207.318 23.172 205.694 21.688 205.61 19.616H215.578C215.606 19.56 215.662 19.112 215.662 18.58C215.662 14.268 213.198 11.496 208.998 11.496C205.554 11.496 202.362 14.352 202.362 18.664C202.362 23.284 205.638 25.972 209.334 25.972C212.61 25.972 214.766 24.04 215.494 21.66L212.75 20.792Z" fill="black"/>
<path d="M223.302 14.492C225.374 14.492 226.298 15.836 226.606 17.04L229.518 15.976C228.958 13.792 226.942 11.496 223.274 11.496C219.354 11.496 216.302 14.52 216.302 18.72C216.302 22.864 219.354 25.972 223.358 25.972C226.942 25.972 228.986 23.648 229.63 21.52L226.774 20.484C226.466 21.52 225.486 23.004 223.358 23.004C221.314 23.004 219.55 21.464 219.55 18.72C219.55 15.976 221.314 14.492 223.302 14.492Z" fill="black"/>
<path d="M235.231 7.744H232.291V9.788C232.291 10.992 231.647 11.916 230.191 11.916H229.491V14.8H232.011V21.66C232.011 24.208 233.579 25.72 236.099 25.72C237.275 25.72 237.891 25.496 238.087 25.412V22.724C237.947 22.752 237.415 22.836 236.967 22.836C235.763 22.836 235.231 22.332 235.231 21.128V14.8H238.059V11.916H235.231V7.744Z" fill="black"/>
<path fill-rule="evenodd" clip-rule="evenodd" d="M24.9561 3.45776C22.2928 1.54135 19.0777 0.491284 15.7543 0.491284C7.05346 0.491284 0 7.54474 0 16.2456C0 24.9465 7.05346 32 15.7543 32C19.2835 32 22.5417 30.8395 25.168 28.8794C21.3469 26.0449 18.8419 21.5356 18.732 16.4316C18.6189 11.1775 21.0687 6.44363 24.9561 3.45776ZM32.3076 16.2469L33.7127 17.6519C34.1007 18.0399 34.7298 18.0398 35.1179 17.6517L45.4618 7.3079L48.2719 10.118C48.5538 10.4033 48.9797 10.491 49.3515 10.3404C49.7234 10.1897 49.9683 9.83029 49.9723 9.42915L49.9736 0.997582C49.9652 0.450098 49.5235 0.00838993 48.976 0L40.5445 0.00129705C40.1469 0.00527938 39.7899 0.245858 39.6369 0.612881C39.484 0.979903 39.5645 1.40271 39.8416 1.68772L42.6517 4.49781L32.3078 14.8416C31.9197 15.2298 31.9196 15.8589 32.3076 16.2469ZM47.5071 16.1222H49.4941C50.0428 16.1222 50.4877 16.5674 50.4877 17.1166C49.9378 25.6196 42.7931 32.1798 34.2821 31.9962C25.7711 31.8127 18.9154 24.9506 18.732 16.4317C18.5486 7.91282 25.1027 0.761488 33.5979 0.211144C33.8682 0.200313 34.1312 0.300282 34.3262 0.487962C34.5212 0.675642 34.6313 0.934802 34.6311 1.20558V3.19446C34.6328 3.71405 34.2345 4.14733 33.7171 4.1889C27.3982 4.67595 22.5643 10.0262 22.7136 16.368C22.8628 22.7097 27.9431 27.8262 34.2779 28.0149C40.6127 28.2036 45.9879 23.3985 46.5136 17.0768C46.5349 16.5432 46.9736 16.1217 47.5071 16.1222Z" fill="black"/>
</svg>
