<svg width="104" height="50" viewBox="0 0 104 50" fill="none" xmlns="http://www.w3.org/2000/svg">
<g clip-path="url(#clip0_456_797)">
<path fill-rule="evenodd" clip-rule="evenodd" d="M83.9864 21.4581C84.3762 22.1306 84.5037 22.8958 84.5458 23.756L84.6012 24.9025V32.92L84.6577 34.0678C84.7708 35.9422 86.1532 37.3282 88.042 37.4461L89.1838 37.5026V24.9025L89.2403 23.756C89.2873 22.9054 89.4136 22.1258 89.8094 21.4484C90.2127 20.7537 90.7917 20.1773 91.4883 19.7771C92.1849 19.3769 92.9744 19.167 93.7778 19.1684C94.5811 19.1699 95.3699 19.3827 96.065 19.7854C96.7601 20.1881 97.337 20.7667 97.7378 21.4629C98.1276 22.1354 98.2492 22.915 98.2961 23.756L98.3526 24.8989V32.92L98.4092 34.0678C98.5271 35.9518 99.8986 37.3378 101.793 37.4461L102.935 37.5026V23.756C102.935 21.3252 101.97 18.9939 100.251 17.2748C98.5329 15.5556 96.202 14.5893 93.7712 14.5883C92.4702 14.587 91.1839 14.8633 89.9982 15.3987C88.8125 15.9342 87.7547 16.7166 86.8955 17.6936C86.0359 16.717 84.9781 15.9348 83.7925 15.3992C82.6069 14.8635 81.3208 14.5867 80.0198 14.5871C78.1165 14.5871 76.3503 15.1646 74.8873 16.162C73.9946 15.1658 71.9975 14.5871 70.8509 14.5871V37.5026L71.9975 37.4461C73.9152 37.3197 75.3012 35.9711 75.3758 34.0678L75.4372 32.92V24.9025L75.4937 23.756C75.5418 22.8909 75.6621 22.1306 76.0531 21.4532C76.4568 20.7589 77.0356 20.1826 77.7316 19.782C78.4277 19.3813 79.2166 19.1702 80.0198 19.1698C80.8235 19.1699 81.6131 19.3814 82.3093 19.7831C83.0055 20.1847 83.5839 20.7623 83.9864 21.4581ZM5.54062 37.4473L6.68717 37.5026H23.8735L23.8169 36.3597C23.6617 34.4756 22.3275 33.0993 20.4374 32.9765L19.2909 32.92H8.98028L22.7269 19.1686L22.6704 18.0268C22.5813 16.1235 21.1906 14.7484 19.2909 14.6437L18.1443 14.592L0.958008 14.5871L1.01455 15.7337C1.16494 17.5997 2.51843 19.0049 4.39286 19.1132L5.54062 19.1698H15.8512L2.10456 32.9212L2.16111 34.0678C2.2742 35.9566 3.63731 37.3246 5.54062 37.4461V37.4473ZM66.3525 17.9414C67.4167 19.0053 68.2608 20.2684 68.8368 21.6587C69.4127 23.0489 69.7091 24.5389 69.7091 26.0437C69.7091 27.5485 69.4127 29.0385 68.8368 30.4287C68.2608 31.8189 67.4167 33.082 66.3525 34.146C64.2026 36.2942 61.2877 37.5009 58.2485 37.5009C55.2092 37.5009 52.2943 36.2942 50.1444 34.146C45.67 29.6716 45.67 22.4157 50.1444 17.9414C51.2076 16.8778 52.4698 16.0341 53.8591 15.4584C55.2483 14.8826 56.7374 14.5862 58.2412 14.5859C59.7475 14.5849 61.2392 14.8808 62.631 15.4568C64.0229 16.0328 65.2875 16.8775 66.3525 17.9426V17.9414ZM63.1102 21.1862C64.399 22.4759 65.1229 24.2246 65.1229 26.0479C65.1229 27.8712 64.399 29.6199 63.1102 30.9096C61.8204 32.1984 60.0718 32.9223 58.2485 32.9223C56.4252 32.9223 54.6765 32.1984 53.3867 30.9096C52.098 29.6199 51.374 27.8712 51.374 26.0479C51.374 24.2246 52.098 22.4759 53.3867 21.1862C54.6765 19.8974 56.4252 19.1734 58.2485 19.1734C60.0718 19.1734 61.8204 19.8974 63.1102 21.1862ZM34.1937 14.5859C35.6976 14.5863 37.1867 14.883 38.576 15.4589C39.9652 16.0348 41.2275 16.8788 42.2905 17.9426C46.7661 22.4157 46.7661 29.6728 42.2905 34.146C40.1406 36.2942 37.2257 37.5009 34.1864 37.5009C31.1472 37.5009 28.2323 36.2942 26.0824 34.146C21.608 29.6716 21.608 22.4157 26.0824 17.9414C27.1455 16.8778 28.4078 16.0341 29.7971 15.4584C31.1863 14.8826 32.6754 14.5862 34.1792 14.5859H34.1937ZM39.0482 21.1837C40.3373 22.4735 41.0615 24.2225 41.0615 26.0461C41.0615 27.8697 40.3373 29.6186 39.0482 30.9084C37.7584 32.1972 36.0097 32.9211 34.1864 32.9211C32.3632 32.9211 30.6145 32.1972 29.3247 30.9084C28.0359 29.6187 27.312 27.87 27.312 26.0467C27.312 24.2234 28.0359 22.4747 29.3247 21.1849C30.6145 19.8962 32.3632 19.1722 34.1864 19.1722C36.0097 19.1722 37.7584 19.8962 39.0482 21.1849V21.1837Z" fill="#E6E6E6"/>
</g>
<defs>
<clipPath id="clip0_456_797">
<rect width="102.083" height="50" fill="white" transform="translate(0.958252)"/>
</clipPath>
</defs>
</svg>
