<svg width="195" height="40" viewBox="0 0 195 40" fill="none" xmlns="http://www.w3.org/2000/svg">
<path d="M158.207 1.83887V37.7009H163.456V1.83887H158.207Z" fill="#E6E6E6"/>
<path fill-rule="evenodd" clip-rule="evenodd" d="M110.748 38.279C108.677 38.279 106.947 37.7967 105.557 36.8317C105.405 36.7264 105.258 36.6165 105.114 36.5025V37.7002H100.482V2.41699H105.77V17.5323C107.067 16.6983 108.636 16.2813 110.478 16.2813C112.472 16.2813 114.208 16.7573 115.688 17.7092C117.167 18.6611 118.312 19.9669 119.122 21.6264C119.946 23.273 120.357 25.1576 120.357 27.2799C120.357 29.3641 119.952 31.2358 119.142 32.8956C118.344 34.5549 117.225 35.8671 115.784 36.8317C114.344 37.7967 112.665 38.279 110.748 38.279ZM105.577 23.9613C105.268 24.913 105.114 26.0192 105.114 27.2799C105.114 28.5406 105.268 29.6473 105.577 30.599C105.885 31.5512 106.387 32.2905 107.081 32.8183C107.789 33.3457 108.728 33.6091 109.899 33.6091C111.031 33.6091 111.957 33.3264 112.678 32.7604C113.398 32.1944 113.932 31.4353 114.279 30.4832C114.627 29.5186 114.8 28.451 114.8 27.2799C114.8 26.1222 114.62 25.0675 114.26 24.1158C113.9 23.1507 113.34 22.3853 112.581 21.8193C111.835 21.2404 110.876 20.951 109.706 20.951C108.613 20.951 107.725 21.2147 107.043 21.7421C106.374 22.2695 105.885 23.0091 105.577 23.9613Z" fill="#E6E6E6"/>
<path d="M92.1842 25.3898V37.7011H97.4325V24.0008C97.4325 21.7237 96.8215 19.8842 95.5994 18.4819C94.3902 17.0669 92.5957 16.3594 90.216 16.3594C88.8265 16.3594 87.5594 16.6681 86.4146 17.2856C85.3663 17.8454 84.5111 18.6148 83.8491 19.5938C83.3553 18.7054 82.673 17.9745 81.8026 17.4014C80.7608 16.7067 79.4228 16.3594 77.7893 16.3594C76.3612 16.3594 75.0684 16.6745 73.9107 17.3049C73.0357 17.7866 72.296 18.3997 71.6914 19.1443V16.8611H67.0605V37.7011H72.3474V25.0813C72.3474 23.885 72.6757 22.9137 73.3318 22.1676C74.0008 21.4086 74.8817 21.0291 75.975 21.0291C77.1203 21.0291 78.0141 21.415 78.6573 22.1869C79.3134 22.9459 79.6417 24.0137 79.6417 25.3898V37.7011H84.89V25.0813C84.89 24.2836 85.038 23.5825 85.3341 22.978C85.6426 22.3605 86.067 21.8845 86.6077 21.5501C87.1479 21.2027 87.7847 21.0291 88.518 21.0291C89.6629 21.0291 90.5566 21.415 91.1999 22.1869C91.856 22.9459 92.1842 24.0137 92.1842 25.3898Z" fill="#E6E6E6"/>
<path d="M48.2569 37.4878C49.2859 38.0409 50.6174 38.3177 52.2514 38.3177C54.2964 38.3177 55.9884 37.874 57.3263 36.9862C57.9613 36.5692 58.5208 36.0906 59.005 35.5513V37.7002H63.6362V16.8602H58.3489V27.4345C58.3489 28.7209 58.2008 29.7628 57.9052 30.5605C57.622 31.3453 57.2555 31.9435 56.805 32.3549C56.3548 32.754 55.8725 33.0239 55.3581 33.1655C54.8436 33.3071 54.3608 33.3779 53.9107 33.3779C52.7916 33.3779 51.9231 33.1269 51.3056 32.6253C50.701 32.1237 50.2638 31.4998 49.9935 30.7536C49.7236 30.0074 49.5627 29.2676 49.5112 28.5343C49.4597 27.7885 49.4339 27.1775 49.4339 26.7012V16.8602H44.1084V28.5536C44.1084 28.9012 44.1337 29.4543 44.1852 30.2133C44.2367 30.9724 44.3847 31.8147 44.6293 32.7412C44.8735 33.6543 45.279 34.5356 45.845 35.3848C46.4238 36.2336 47.2279 36.9347 48.2569 37.4878Z" fill="#E6E6E6"/>
<path d="M122.674 16.8616V37.7016H127.961V27.0501C127.961 26.2524 128.07 25.5384 128.289 24.908C128.508 24.2648 128.829 23.7117 129.254 23.2487C129.678 22.7727 130.199 22.3932 130.817 22.1102C131.434 21.8143 132.123 21.6406 132.882 21.5892C133.653 21.5249 134.329 21.5827 134.907 21.7628V16.8616C134.277 16.7844 133.647 16.7715 133.016 16.823C132.386 16.8616 131.775 16.9709 131.183 17.151C130.592 17.3183 130.045 17.5563 129.543 17.865C128.887 18.2509 128.334 18.7397 127.884 19.3315C127.671 19.6117 127.478 19.9062 127.305 20.2152V16.8616H122.674Z" fill="#E6E6E6"/>
<path fill-rule="evenodd" clip-rule="evenodd" d="M145.958 38.28C143.822 38.28 141.938 37.8234 140.304 36.9099C138.683 35.9839 137.409 34.7168 136.483 33.1085C135.57 31.4878 135.113 29.6354 135.113 27.5512C135.113 25.2745 135.563 23.2933 136.464 21.608C137.364 19.9228 138.606 18.6171 140.188 17.6909C141.77 16.7518 143.591 16.2822 145.649 16.2822C147.836 16.2822 149.695 16.7968 151.225 17.8259C152.756 18.8551 153.888 20.3023 154.622 22.1676C155.355 24.0331 155.613 26.2262 155.394 28.7476H140.761C140.924 29.9986 141.313 31.0147 141.925 31.7963C142.774 32.8515 144.015 33.3788 145.649 33.3788C146.678 33.3788 147.559 33.1535 148.293 32.7034C149.026 32.2533 149.585 31.6036 149.971 30.7545L155.22 32.2597C154.435 34.1636 153.194 35.6427 151.496 36.6974C149.811 37.7526 147.965 38.28 145.958 38.28ZM149.18 22.2448C149.629 22.8542 149.93 23.7227 150.083 24.8496H140.899C141.103 23.8873 141.445 23.0961 141.925 22.4763C142.774 21.3829 144.093 20.8362 145.881 20.8362C147.412 20.8362 148.511 21.3057 149.18 22.2448Z" fill="#E6E6E6"/>
<path d="M167.697 37.7009V1.83887H172.946V37.7009H167.697Z" fill="#E6E6E6"/>
<path fill-rule="evenodd" clip-rule="evenodd" d="M178.79 37.4308C179.832 37.9968 181.099 38.28 182.591 38.28C184.392 38.28 185.878 37.971 187.049 37.3535C187.982 36.8565 188.863 36.12 189.692 35.143V37.7011H194.285V24.9655C194.285 24.0138 194.246 23.1517 194.169 22.3799C194.092 21.608 193.847 20.8362 193.436 20.0643C192.702 18.675 191.622 17.6973 190.194 17.1313C188.766 16.5653 187.132 16.2822 185.293 16.2822C182.784 16.2822 180.803 16.8225 179.349 17.9031C177.896 18.9837 176.905 20.3859 176.378 22.1097L181.125 23.6147C181.459 22.6629 182.045 22.0004 182.881 21.6273C183.717 21.2542 184.521 21.0677 185.293 21.0677C186.682 21.0677 187.673 21.3572 188.264 21.9361C188.729 22.3906 189.011 23.0473 189.111 23.9066C188.222 24.0414 187.381 24.1692 186.586 24.2901C185.235 24.4832 184.026 24.6892 182.958 24.9076C181.89 25.1264 180.971 25.3774 180.199 25.6602C179.079 26.0717 178.185 26.5866 177.516 27.2041C176.86 27.8087 176.384 28.5094 176.088 29.3071C175.793 30.1048 175.645 30.9862 175.645 31.9508C175.645 33.1085 175.908 34.1696 176.436 35.1347C176.976 36.0864 177.761 36.8519 178.79 37.4308ZM186.142 33.6487C185.486 33.9834 184.675 34.1508 183.71 34.1508C183.106 34.1508 182.585 34.0607 182.148 33.8804C181.71 33.7002 181.369 33.4432 181.125 33.1085C180.893 32.7614 180.777 32.3494 180.777 31.8735C180.777 31.5264 180.848 31.211 180.99 30.9282C181.144 30.645 181.376 30.388 181.685 30.1563C182.006 29.9117 182.424 29.6869 182.939 29.4809C183.389 29.3135 183.91 29.1591 184.502 29.0179C185.093 28.8763 185.872 28.7218 186.836 28.5545C187.456 28.4391 188.199 28.3071 189.063 28.1595C189.051 28.5264 189.029 28.9411 188.998 29.4037C188.959 30.1499 188.805 30.8059 188.535 31.3719C188.393 31.6676 188.123 32.0345 187.724 32.4717C187.338 32.9089 186.811 33.3016 186.142 33.6487Z" fill="#E6E6E6"/>
<path fill-rule="evenodd" clip-rule="evenodd" d="M15.1425 17.0115H0.889648V23.2184C0.889648 32.4864 8.40303 40 17.6713 40C26.9395 40 34.4531 32.4864 34.4531 23.2184V17.0115H19.7402V7.12644C19.7402 3.19062 16.5496 0 12.6138 0C8.67797 0 5.48735 3.19062 5.48735 7.12644H10.0851C10.0851 5.72984 11.2172 4.5977 12.6138 4.5977C14.0104 4.5977 15.1425 5.72984 15.1425 7.12644V17.0115ZM15.1425 21.6092V30.3448H19.7402V21.6092H29.8554V23.2184C29.8554 29.9476 24.4002 35.4023 17.6713 35.4023C10.9423 35.4023 5.48735 29.9476 5.48735 23.2184V21.6092H15.1425Z" fill="#E6E6E6"/>
</svg>
