<svg width="174" height="40" viewBox="0 0 174 40" fill="none" xmlns="http://www.w3.org/2000/svg">
<path d="M51.8646 10.6593C53.5164 10.6593 54.9461 10.9346 56.1538 11.4851C57.3792 12.0357 58.3203 12.8171 58.9772 13.8294C59.6346 14.8417 59.9633 16.0404 59.9633 17.4257C59.9633 18.7932 59.6346 19.992 58.9772 21.022C58.3203 22.0343 57.3792 22.8158 56.1538 23.3661C54.9461 23.8991 53.5164 24.1656 51.8646 24.1656H48.1084V29.3071H43.793V10.6593H51.8646ZM51.6252 20.6491C52.9212 20.6491 53.9072 20.3738 54.5819 19.8232C55.257 19.255 55.5941 18.4557 55.5941 17.4257C55.5941 16.3779 55.257 15.5787 54.5819 15.0282C53.9072 14.4598 52.9212 14.1757 51.6252 14.1757H48.1084V20.6491H51.6252Z" fill="#E6E6E6"/>
<path d="M65.3893 16.8663C65.8863 16.1737 66.5526 15.6498 67.3871 15.2946C68.2394 14.9394 69.2161 14.7618 70.3172 14.7618V18.5979C69.8557 18.5624 69.5448 18.5446 69.3849 18.5446C68.195 18.5446 67.2628 18.8821 66.5881 19.5569C65.913 20.214 65.5754 21.2085 65.5754 22.5405V29.3071H61.4199V14.9749H65.3893V16.8663Z" fill="#E6E6E6"/>
<path d="M78.1458 29.5199C76.6366 29.5199 75.2779 29.2094 74.0702 28.5876C72.8804 27.9485 71.9481 27.0691 71.273 25.9502C70.5983 24.8314 70.2607 23.5616 70.2607 22.141C70.2607 20.7202 70.5983 19.4504 71.273 18.3315C71.9481 17.2127 72.8804 16.3424 74.0702 15.7209C75.2779 15.0815 76.6366 14.7618 78.1458 14.7618C79.6555 14.7618 81.0052 15.0815 82.1951 15.7209C83.385 16.3424 84.3173 17.2127 84.9924 18.3315C85.6671 19.4504 86.0046 20.7202 86.0046 22.141C86.0046 23.5616 85.6671 24.8314 84.9924 25.9502C84.3173 27.0691 83.385 27.9485 82.1951 28.5876C81.0052 29.2094 79.6555 29.5199 78.1458 29.5199ZM78.1458 26.1101C79.2118 26.1101 80.0819 25.7548 80.7565 25.0446C81.4494 24.3166 81.7954 23.3484 81.7954 22.141C81.7954 20.9333 81.4494 19.9743 80.7565 19.2639C80.0819 18.5358 79.2118 18.1717 78.1458 18.1717C77.0803 18.1717 76.2013 18.5358 75.5089 19.2639C74.816 19.9743 74.4695 20.9333 74.4695 22.141C74.4695 23.3484 74.816 24.3166 75.5089 25.0446C76.2013 25.7548 77.0803 26.1101 78.1458 26.1101Z" fill="#E6E6E6"/>
<path d="M104.847 10.6593V29.3071H101.304L92.0062 17.9851V29.3071H87.7441V10.6593H91.3138L100.584 21.981V10.6593H104.847Z" fill="#E6E6E6"/>
<path d="M113.414 14.7618C115.633 14.7618 117.338 15.2946 118.528 16.3602C119.718 17.408 120.313 18.9975 120.313 21.1286V29.3071H116.424V27.5221C115.642 28.8541 114.186 29.5199 112.055 29.5199C110.954 29.5199 109.994 29.3333 109.178 28.9607C108.379 28.5876 107.766 28.0728 107.34 27.4155C106.913 26.7586 106.7 26.0124 106.7 25.1779C106.7 23.8458 107.198 22.7981 108.192 22.0344C109.204 21.2707 110.758 20.8889 112.854 20.8889H116.157C116.157 19.9832 115.882 19.2905 115.331 18.811C114.781 18.3137 113.955 18.0651 112.854 18.0651C112.09 18.0651 111.335 18.1895 110.59 18.438C109.862 18.669 109.24 18.9886 108.725 19.3971L107.233 16.4934C108.014 15.9428 108.947 15.5166 110.03 15.2147C111.131 14.9128 112.259 14.7618 113.414 14.7618ZM113.094 26.7231C113.804 26.7231 114.435 26.5632 114.985 26.2434C115.536 25.9058 115.926 25.4177 116.157 24.7781V23.3129H113.307C111.602 23.3129 110.75 23.8725 110.75 24.9913C110.75 25.5243 110.954 25.9502 111.362 26.27C111.788 26.5721 112.365 26.7231 113.094 26.7231Z" fill="#E6E6E6"/>
<path d="M131.985 28.6141C131.577 28.9161 131.071 29.147 130.467 29.3069C129.881 29.4486 129.26 29.5197 128.602 29.5197C126.898 29.5197 125.575 29.0849 124.633 28.2143C123.71 27.3442 123.248 26.0655 123.248 24.3786V18.4911H121.037V15.2944H123.248V11.8047H127.404V15.2944H130.973V18.4911H127.404V24.3253C127.404 24.9289 127.555 25.3997 127.857 25.7368C128.176 26.0566 128.62 26.2165 129.189 26.2165C129.846 26.2165 130.405 26.0389 130.867 25.684L131.985 28.6141Z" fill="#E6E6E6"/>
<path d="M147.426 14.9757V29.3079H143.483V27.6028C142.933 28.2242 142.275 28.7039 141.512 29.0414C140.748 29.3608 139.922 29.5207 139.034 29.5207C137.152 29.5207 135.66 28.9792 134.559 27.8959C133.458 26.8127 132.907 25.2053 132.907 23.0742V14.9757H137.063V22.4613C137.063 24.77 138.031 25.9243 139.967 25.9243C140.961 25.9243 141.761 25.605 142.364 24.9654C142.968 24.3085 143.27 23.3403 143.27 22.0618V14.9757H147.426Z" fill="#E6E6E6"/>
<path d="M153.914 16.8663C154.411 16.1737 155.077 15.6498 155.912 15.2946C156.764 14.9394 157.741 14.7618 158.842 14.7618V18.5979C158.38 18.5624 158.069 18.5446 157.91 18.5446C156.719 18.5446 155.787 18.8821 155.112 19.5569C154.437 20.214 154.1 21.2085 154.1 22.5405V29.3071H149.944V14.9749H153.914V16.8663Z" fill="#E6E6E6"/>
<path d="M173.889 22.1942C173.889 22.2473 173.862 22.6204 173.809 23.3129H162.967C163.162 24.2012 163.624 24.9025 164.352 25.4177C165.08 25.9325 165.986 26.1901 167.069 26.1901C167.815 26.1901 168.472 26.0835 169.041 25.8703C169.626 25.6398 170.168 25.2844 170.665 24.8048L172.877 27.2023C171.527 28.7475 169.555 29.5199 166.962 29.5199C165.347 29.5199 163.917 29.2094 162.674 28.5876C161.43 27.9485 160.472 27.0691 159.796 25.9502C159.122 24.8314 158.784 23.5616 158.784 22.141C158.784 20.7379 159.113 19.477 159.77 18.3581C160.445 17.2216 161.359 16.3424 162.514 15.7209C163.686 15.0815 164.991 14.7618 166.43 14.7618C167.833 14.7618 169.103 15.0637 170.239 15.6676C171.376 16.2714 172.264 17.1416 172.903 18.2782C173.56 19.3971 173.889 20.7024 173.889 22.1942ZM166.456 17.9053C165.515 17.9053 164.725 18.1717 164.086 18.7045C163.446 19.2373 163.056 19.9654 162.913 20.8889H169.973C169.831 19.9832 169.44 19.2639 168.801 18.7311C168.161 18.1806 167.38 17.9053 166.456 17.9053Z" fill="#E6E6E6"/>
<path fill-rule="evenodd" clip-rule="evenodd" d="M20.1269 0.27472C19.4938 -0.0915733 18.7131 -0.0915733 18.0799 0.27472C13.5824 2.87635 10.5491 7.74404 10.5491 13.3226C10.5491 14.1177 10.6107 14.8984 10.7294 15.6601C7.6334 14.6087 4.28115 14.9913 1.54308 16.5691C0.909277 16.9342 0.51891 17.6103 0.519532 18.3418C0.522774 22.2009 2.5275 25.9621 6.11786 28.035C7.87924 29.0521 9.80176 29.5353 11.6981 29.5362C11.4096 30.3534 11.2526 31.2333 11.2526 32.1496C11.2526 36.4854 14.7674 40 19.1031 40C23.439 40 26.9536 36.4854 26.9536 32.1496C26.9536 31.2311 26.7959 30.3499 26.5063 29.5309C28.2896 29.4745 30.0857 28.9903 31.7398 28.035C35.3303 25.9621 37.3348 22.2011 37.3379 18.342C37.3388 17.6105 36.9484 16.9344 36.3145 16.5692C33.6843 15.0536 30.4873 14.6408 27.4954 15.5427C27.6025 14.8182 27.6576 14.0769 27.6576 13.3226C27.6576 7.74404 24.6244 2.87635 20.1269 0.27472ZM14.6373 13.3226C14.6373 9.70005 16.3913 6.48522 19.1034 4.48414C21.8155 6.48522 23.5696 9.70005 23.5696 13.3226C23.5696 16.9452 21.8155 20.16 19.1034 22.1611C16.3913 20.16 14.6373 16.9452 14.6373 13.3226ZM27.165 20.1114C29.0526 19.0215 31.2339 18.8947 33.1393 19.5844C32.784 21.5793 31.5834 23.4047 29.6958 24.4946C27.8081 25.5846 25.6269 25.7111 23.7215 25.0218C24.0768 23.0267 25.2773 21.2013 27.165 20.1114ZM4.71842 19.5842C6.62375 18.8946 8.8049 19.0214 10.6926 20.1112C12.5803 21.2011 13.7807 23.0267 14.1362 25.0214C12.2308 25.7111 10.0496 25.5846 8.16194 24.4946C6.27425 23.4047 5.07383 21.5791 4.71842 19.5842ZM15.3408 32.1496C15.3408 30.0718 17.0252 28.3872 19.1031 28.3872C21.181 28.3872 22.8656 30.0718 22.8656 32.1496C22.8656 34.2273 21.181 35.912 19.1031 35.912C17.0252 35.912 15.3408 34.2273 15.3408 32.1496Z" fill="#E6E6E6"/>
</svg>
