<svg width="198" height="40" viewBox="0 0 198 40" fill="none" xmlns="http://www.w3.org/2000/svg">
<path d="M79.6804 32.9916C79.1333 32.5227 78.8193 32.0308 78.7904 31.515L79.6804 32.9916ZM79.6804 32.9916L79.6832 32.9939C80.2781 33.4808 81.1161 33.7129 82.1754 33.7129H84.4933H84.6482V33.558V33.2541V33.0992H84.4933H83.3293L82.9252 33.0256L82.9178 33.0243L82.91 33.0234C82.6691 33.0036 82.4011 32.8404 82.1096 32.4777C81.8577 32.108 81.7221 31.5747 81.7221 30.8599V18.9652C81.7221 17.6969 81.398 16.6466 80.7378 15.8278L80.7359 15.8253C80.3038 15.3122 79.6262 14.9328 78.7242 14.6747C77.842 14.3897 76.6972 14.25 75.2969 14.25C73.8644 14.25 72.5509 14.7458 71.3607 15.729C70.4091 16.4947 69.6933 17.3151 69.2198 18.1915V14.557V14.402H69.0644H66.4044H66.2495V14.557V33.558V33.7129H66.4044H69.0644H69.2198V33.558V20.0673C69.2198 19.1182 69.8275 18.0164 71.1111 16.7578L71.1125 16.7567C72.3795 15.4897 73.7977 14.864 75.3728 14.864C76.141 14.864 76.774 14.9877 77.2788 15.2274C78.2369 15.7435 78.7522 16.9436 78.7522 18.9272V30.8599V30.8645V30.8691L78.7904 31.515L79.6804 32.9916ZM63.8538 8.69736L63.9968 8.75225L64.0533 8.61024L64.2055 8.23023L64.2667 8.0776L64.1108 8.0256C61.512 7.15943 58.9494 6.72559 56.4232 6.72559C53.9191 6.72559 52.0126 7.31298 50.7313 8.51512C49.4551 9.68748 48.8198 11.2251 48.8198 13.1129C48.8198 15.4949 49.8078 17.3424 51.7768 18.6381C52.6457 19.2257 53.6028 19.7616 54.6478 20.2459L54.651 20.2472C55.69 20.7035 56.7165 21.1471 57.7307 21.578L57.7321 21.5786C58.7646 22.0068 59.7085 22.4724 60.5626 22.975C62.4471 24.0907 63.3748 25.6263 63.3748 27.5917C63.3748 29.392 62.6636 30.7477 61.2407 31.68C59.8266 32.5981 58.1091 33.0611 56.0812 33.0611C54.7039 33.0611 53.3513 32.8606 52.0236 32.4602C50.7194 32.0336 49.6606 31.4966 48.8428 30.8521L48.7072 30.7449L48.6152 30.8916L48.4254 31.1959L48.3477 31.3205L48.4676 31.4046C50.7019 32.9714 53.3945 33.7511 56.5372 33.7511C58.2203 33.7511 59.6933 33.5599 60.9529 33.1741L60.9548 33.1737C62.2526 32.7581 63.3546 31.9793 64.2588 30.8424C65.1696 29.6972 65.6228 28.3194 65.6228 26.7176C65.6228 25.1061 65.3544 23.7745 64.8073 22.732C64.2648 21.6733 63.5518 20.8418 62.6663 20.2429C61.7965 19.6546 60.8385 19.1307 59.7917 18.6713C58.7499 18.2139 57.7077 17.8072 56.6655 17.4512C55.6578 17.0733 54.7268 16.6706 53.8717 16.2432C51.9873 15.2509 51.0679 13.867 51.0679 12.0869C51.0679 10.6118 51.6182 9.46832 52.7165 8.63833C53.8203 7.80424 55.3663 7.37762 57.3735 7.37762C59.4027 7.37762 61.563 7.81611 63.8538 8.69736ZM85.4601 16.9175L85.4596 16.9183C83.7007 18.7032 82.8309 21.2043 82.8309 24.3995C82.8309 27.5921 83.6741 29.985 85.3898 31.5444C87.0954 33.0951 89.3007 33.8651 91.9924 33.8651C94.7144 33.8651 96.9597 32.9774 98.7145 31.1973C100.499 29.4126 101.382 26.9111 101.382 23.7155C101.382 20.523 100.539 18.1301 98.823 16.5704C97.117 15.0197 94.8988 14.25 92.1822 14.25C89.4846 14.25 87.2397 15.138 85.4601 16.9175ZM87.5942 17.3858L87.5951 17.385C88.8363 15.6969 90.3879 14.864 92.2581 14.864C94.1379 14.864 95.638 15.5782 96.7731 17.0094C97.9068 18.4389 98.4874 20.6644 98.4874 23.7155C98.4874 26.7357 97.858 29.0803 96.6182 30.7675C95.3774 32.4298 93.8253 33.2509 91.9542 33.2509C90.0749 33.2509 88.5743 32.537 87.4392 31.1054C86.3055 29.6761 85.7249 27.4629 85.7249 24.4375C85.7249 21.391 86.3547 19.0469 87.5942 17.3858ZM127.274 14.6754L127.161 14.7886L127.277 14.8981C127.642 15.2402 127.836 15.7508 127.836 16.4571C127.836 17.1702 127.689 17.776 127.401 18.2803L127.397 18.2861L127.395 18.2922L122.041 29.8857L116.356 14.5033L116.319 14.402H116.211H113.551H113.329L113.405 14.6103L114.789 18.3885L109.5 29.8848L103.816 14.5033L103.778 14.402H103.67H101.01H100.787L100.865 14.6111L107.933 33.6123L107.971 33.7129H108.078H108.458H108.558L108.6 33.6224L115.132 19.2572L120.474 33.6123L120.511 33.7129H120.619H120.999H121.099L121.14 33.6224L128.057 18.4214L128.058 18.4183C128.369 17.6921 128.526 16.9747 128.526 16.2671C128.526 16.0777 128.5 15.8779 128.448 15.6683C128.417 15.4351 128.302 15.1878 128.121 14.9286C128.044 14.8002 127.971 14.6931 127.901 14.6098C127.833 14.5278 127.76 14.4579 127.681 14.4184L127.581 14.3684L127.502 14.4474L127.274 14.6754Z" fill="#E6E6E6"/>
<path d="M79.6804 32.9916C79.1333 32.5227 78.8193 32.0308 78.7904 31.515M79.6804 32.9916L78.7904 31.515M79.6804 32.9916L79.6832 32.9939C80.2781 33.4808 81.1161 33.7129 82.1754 33.7129H84.4933H84.6482V33.558V33.2541V33.0992H84.4933H83.3293L82.9252 33.0256L82.9178 33.0243L82.91 33.0234C82.6691 33.0036 82.4011 32.8404 82.1096 32.4777C81.8577 32.108 81.7221 31.5747 81.7221 30.8599V18.9652C81.7221 17.6969 81.398 16.6466 80.7378 15.8278L80.7359 15.8253C80.3038 15.3122 79.6262 14.9328 78.7242 14.6747C77.842 14.3897 76.6972 14.25 75.2969 14.25C73.8644 14.25 72.5509 14.7458 71.3607 15.729C70.4091 16.4947 69.6933 17.3151 69.2198 18.1915V14.557V14.402H69.0644H66.4044H66.2495V14.557V33.558V33.7129H66.4044H69.0644H69.2198V33.558V20.0673C69.2198 19.1182 69.8275 18.0164 71.1111 16.7578L71.1125 16.7567C72.3795 15.4897 73.7977 14.864 75.3728 14.864C76.141 14.864 76.774 14.9877 77.2788 15.2274C78.2369 15.7435 78.7522 16.9436 78.7522 18.9272V30.8599V30.8645V30.8691L78.7904 31.515M63.8538 8.69736L63.9968 8.75225L64.0533 8.61024L64.2055 8.23023L64.2667 8.0776L64.1108 8.0256C61.512 7.15943 58.9494 6.72559 56.4232 6.72559C53.9191 6.72559 52.0126 7.31298 50.7313 8.51512C49.4551 9.68748 48.8198 11.2251 48.8198 13.1129C48.8198 15.4949 49.8078 17.3424 51.7768 18.6381C52.6457 19.2257 53.6028 19.7616 54.6478 20.2459L54.651 20.2472C55.69 20.7035 56.7165 21.1471 57.7307 21.578L57.7321 21.5786C58.7646 22.0068 59.7085 22.4724 60.5626 22.975C62.4471 24.0907 63.3748 25.6263 63.3748 27.5917C63.3748 29.392 62.6636 30.7477 61.2407 31.68C59.8266 32.5981 58.1091 33.0611 56.0812 33.0611C54.7039 33.0611 53.3513 32.8606 52.0236 32.4602C50.7194 32.0336 49.6606 31.4966 48.8428 30.8521L48.7072 30.7449L48.6152 30.8916L48.4254 31.1959L48.3477 31.3205L48.4676 31.4046C50.7019 32.9714 53.3945 33.7511 56.5372 33.7511C58.2203 33.7511 59.6933 33.5599 60.9529 33.1741L60.9548 33.1737C62.2526 32.7581 63.3546 31.9793 64.2588 30.8424C65.1696 29.6972 65.6228 28.3194 65.6228 26.7176C65.6228 25.1061 65.3544 23.7745 64.8073 22.732C64.2648 21.6733 63.5518 20.8418 62.6663 20.2429C61.7965 19.6546 60.8385 19.1307 59.7917 18.6713C58.7499 18.2139 57.7077 17.8072 56.6655 17.4512C55.6578 17.0733 54.7268 16.6706 53.8717 16.2432C51.9873 15.2509 51.0679 13.867 51.0679 12.0869C51.0679 10.6118 51.6182 9.46832 52.7165 8.63833C53.8203 7.80424 55.3663 7.37762 57.3735 7.37762C59.4027 7.37762 61.563 7.81611 63.8538 8.69736ZM85.4601 16.9175L85.4596 16.9183C83.7007 18.7032 82.8309 21.2043 82.8309 24.3995C82.8309 27.5921 83.6741 29.985 85.3898 31.5444C87.0954 33.0951 89.3007 33.8651 91.9924 33.8651C94.7144 33.8651 96.9597 32.9774 98.7145 31.1973C100.499 29.4126 101.382 26.9111 101.382 23.7155C101.382 20.523 100.539 18.1301 98.823 16.5704C97.117 15.0197 94.8988 14.25 92.1822 14.25C89.4846 14.25 87.2397 15.138 85.4601 16.9175ZM87.5942 17.3858L87.5951 17.385C88.8363 15.6969 90.3879 14.864 92.2581 14.864C94.1379 14.864 95.638 15.5782 96.7731 17.0094C97.9068 18.4389 98.4874 20.6644 98.4874 23.7155C98.4874 26.7357 97.858 29.0803 96.6182 30.7675C95.3774 32.4298 93.8253 33.2509 91.9542 33.2509C90.0749 33.2509 88.5743 32.537 87.4392 31.1054C86.3055 29.6761 85.7249 27.4629 85.7249 24.4375C85.7249 21.391 86.3547 19.0469 87.5942 17.3858ZM127.274 14.6754L127.161 14.7886L127.277 14.8981C127.642 15.2402 127.836 15.7508 127.836 16.4571C127.836 17.1702 127.689 17.776 127.401 18.2803L127.397 18.2861L127.395 18.2922L122.041 29.8857L116.356 14.5033L116.319 14.402H116.211H113.551H113.329L113.405 14.6103L114.789 18.3885L109.5 29.8848L103.816 14.5033L103.778 14.402H103.67H101.01H100.787L100.865 14.6111L107.933 33.6123L107.971 33.7129H108.078H108.458H108.558L108.6 33.6224L115.132 19.2572L120.474 33.6123L120.511 33.7129H120.619H120.999H121.099L121.14 33.6224L128.057 18.4214L128.058 18.4183C128.369 17.6921 128.526 16.9747 128.526 16.2671C128.526 16.0777 128.5 15.8779 128.448 15.6683C128.417 15.4351 128.302 15.1878 128.121 14.9286C128.044 14.8002 127.971 14.6931 127.901 14.6098C127.833 14.5278 127.76 14.4579 127.681 14.4184L127.581 14.3684L127.502 14.4474L127.274 14.6754Z" stroke="#E6E6E6" stroke-width="0.674298"/>
<path d="M134.412 7.23171C135.125 6.13852 136.282 5.29161 137.888 5.21676L137.552 31.1242V31.1265C137.552 31.3605 137.625 31.6129 137.758 31.8795C138.382 33.1277 139.871 33.7134 142.115 33.7134H143.293H143.448V33.5584V33.2546V33.0996H143.293H142.129L141.725 33.0261L141.718 33.0247L141.71 33.0238C141.469 33.004 141.201 32.8408 140.91 32.4781C140.657 32.1085 140.522 31.5752 140.522 30.8603V5.09494V4.94245L140.37 4.93996L138.047 4.90194L137.892 4.89941L137.891 4.90401C135.291 4.95086 133.368 5.56234 132.159 6.77083C130.925 7.97968 130.327 9.99467 130.327 12.7713V14.4025H129.684H129.529V14.5574V15.1714V15.3264H129.684H130.327V33.5584V33.7134H130.482H133.142H133.297V33.5584V15.3264H136.144H136.299V15.1714V14.5574V14.4025H136.144H133.297V12.7713C133.297 10.169 133.678 8.33335 134.411 7.23299L134.412 7.23171ZM154.648 24.2691C154.129 24.2276 153.56 24.2069 152.941 24.2069C152.252 24.2069 151.5 24.2452 150.686 24.3214C149.048 24.4231 147.692 24.6141 146.622 24.8961C145.553 25.1776 144.755 25.5536 144.246 26.0355C143.756 26.4993 143.441 26.9414 143.328 27.3622C143.224 27.753 143.171 28.1212 143.171 28.466C143.171 28.7782 143.197 29.0903 143.249 29.4025C143.469 30.8741 144.044 31.9963 144.987 32.7484C145.929 33.4996 147.218 33.8655 148.836 33.8655C150.226 33.8655 151.435 33.5791 152.457 32.9999C153.329 32.5052 154.059 31.8004 154.648 30.8902V31.1265C154.648 31.5995 154.982 32.1199 155.567 32.6804C156.248 33.3856 157.482 33.7134 159.211 33.7134H160.389H160.544V33.5584V33.2546V33.0996H160.389H159.225L158.821 33.0261L158.814 33.0247L158.806 33.0238C158.565 33.004 158.297 32.8408 158.006 32.4781C157.753 32.1085 157.618 31.5752 157.618 30.8603V18.1296C157.618 17.2729 157.269 16.4649 156.591 15.7083C156.146 15.2096 155.475 14.8464 154.596 14.6074C153.717 14.3682 152.62 14.2504 151.307 14.2504C148.952 14.2504 146.637 14.7752 144.363 15.8227L144.21 15.8935L144.294 16.0404L144.446 16.3064L144.522 16.4404L144.657 16.3644C145.222 16.0451 146.118 15.7198 147.356 15.3913L147.358 15.3907C148.616 15.0384 149.704 14.8644 150.623 14.8644C151.548 14.8644 152.285 14.9898 152.841 15.2316L152.846 15.2338C153.415 15.4564 153.788 15.7203 153.991 16.0137C154.212 16.3326 154.383 16.6626 154.505 17.0037L154.507 17.0102L154.51 17.0165C154.655 17.33 154.692 17.5713 154.652 17.7521C154.626 17.8565 154.61 17.9495 154.61 18.0251C154.61 18.063 154.614 18.106 154.629 18.147C154.634 18.1601 154.64 18.174 154.648 18.1876V24.2691ZM146.217 29.3653L146.217 29.363C146.192 29.1133 146.179 28.8908 146.179 28.6941C146.179 27.6063 146.463 26.7741 147.012 26.177C147.279 25.8868 147.712 25.6317 148.326 25.4206C148.939 25.2101 149.722 25.0472 150.678 24.9339C151.356 24.8586 152.035 24.8209 152.713 24.8209C153.369 24.8209 154.014 24.8427 154.648 24.8863V29.3331C154.575 30.133 154.029 30.9959 152.954 31.9209C151.917 32.81 150.749 33.2513 149.445 33.2513C148.469 33.2513 147.727 32.9304 147.198 32.2997C146.663 31.6625 146.33 30.692 146.217 29.3653ZM163.775 5.05692V4.90194H163.62H160.96H160.805V5.05692V33.5584V33.7134H160.96H163.62H163.775V33.5584V24.458L164.631 23.4752L171.548 33.6458L171.594 33.7134H171.677H174.337H174.63L174.465 33.4711L166.362 21.5623L172.477 14.6602L172.705 14.4025H172.361H171.981H171.911L171.865 14.4546L163.775 23.5737V5.05692ZM189.242 32.2055L189.184 32.068L189.044 32.1218C187.089 32.8739 184.854 33.2513 182.335 33.2513C180.587 33.2513 179.176 32.5406 178.089 31.1095C177.03 29.6797 176.486 27.4151 176.486 24.286C176.486 23.6059 176.519 22.9482 176.585 22.3128H190.012H190.167V22.1578V22.1571V22.1564V22.1556V22.1548V22.1541V22.1534V22.1526V22.1519V22.1512V22.1504V22.1496V22.1489V22.1482V22.1474V22.1467V22.146V22.1452V22.1444V22.1437V22.143V22.1422V22.1415V22.1408V22.14V22.1393V22.1385V22.1378V22.137V22.1363V22.1356V22.1348V22.1341V22.1333V22.1326V22.1319V22.1311V22.1304V22.1296V22.1289V22.1281V22.1274V22.1267V22.1259V22.1252V22.1244V22.1237V22.1229V22.1222V22.1215V22.1207V22.12V22.1192V22.1185V22.1177V22.117V22.1163V22.1155V22.1148V22.114V22.1133V22.1125V22.1118V22.1111V22.1103V22.1096V22.1088V22.1081V22.1074V22.1066V22.1059V22.1051V22.1044V22.1036V22.1029V22.1022V22.1014V22.1007V22.0999V22.0992V22.0984V22.0977V22.097V22.0962V22.0955V22.0948V22.094V22.0932V22.0925V22.0918V22.091V22.0903V22.0896V22.0888V22.088V22.0873V22.0866V22.0858V22.0851V22.0844V22.0836V22.0828V22.0821V22.0814V22.0806V22.0799V22.0792V22.0784V22.0777V22.0769V22.0762V22.0754V22.0747V22.074V22.0732V22.0725V22.0717V22.071V22.0702V22.0695V22.0688V22.068V22.0673V22.0665V22.0658V22.0651V22.0643V22.0636V22.0628V22.0621V22.0613V22.0606V22.0599V22.0591V22.0584V22.0576V22.0569V22.0561V22.0554V22.0547V22.0539V22.0532V22.0524V22.0517V22.0509V22.0502V22.0495V22.0487V22.048V22.0472V22.0465V22.0457V22.045V22.0443V22.0435V22.0428V22.042V22.0413V22.0406V22.0398V22.0391V22.0383V22.0376V22.0368V22.0361V22.0354V22.0346V22.0339V22.0332V22.0324V22.0316V22.0309V22.0302V22.0294V22.0287V22.028V22.0272V22.0264V22.0257V22.025V22.0242V22.0235V22.0228V22.022V22.0212V22.0205V22.0198V22.019V22.0183V22.0176V22.0168V22.016V22.0153V22.0146V22.0138V22.0131V22.0124V22.0116V22.0109V22.0101V22.0094V22.0086V22.0079V22.0072V22.0064V22.0057V22.0049V22.0042V22.0035V22.0027V22.002V22.0012V22.0005V21.9997V21.999V21.9983V21.9975V21.9967V21.996V21.9953V21.9945V21.9938V21.9931V21.9923V21.9916V21.9908V21.9901V21.9893V21.9886V21.9879V21.9871V21.9864V21.9856V21.9849V21.9841V21.9834V21.9827V21.9819V21.9812V21.9804V21.9797V21.9789V21.9782V21.9775V21.9767V21.976V21.9752V21.9745V21.9738V21.973V21.9723V21.9715V21.9708V21.97V21.9693V21.9686V21.9678V21.9671V21.9664V21.9656V21.9648V21.9641V21.9634V21.9626V21.9619V21.9612V21.9604V21.9596V21.9589V21.9582V21.9574V21.9567V21.956V21.9552V21.9544V21.9537V21.953V21.9522V21.9515V21.9508V21.95V21.9492V21.9485V21.9478V21.947V21.9463V21.9456V21.9448V21.9441V21.9433V21.9426V21.9418V21.9411V21.9403V21.9396V21.9389V21.9381V21.9374V21.9367V21.9359V21.9351V21.9344V21.9337V21.9329V21.9322V21.9315V21.9307V21.9299V21.9292V21.9285V21.9277V21.927V21.9263V21.9255V21.9247V21.924V21.9233V21.9225V21.9218V21.9211V21.9203V21.9196V21.9188V21.9181V21.9173V21.9166V21.9159V21.9151V21.9144V21.9136V21.9129V21.9122V21.9114V21.9107V21.9099V21.9092V21.9084V21.9077V21.907V21.9062V21.9055V21.9047V21.904V21.9032V21.9025V21.9018V21.901V21.9003V21.8996V21.8988V21.898V21.8973V21.8966V21.8958V21.8951V21.8944V21.8936V21.8928V21.8921V21.8914V21.8906V21.8899V21.8891V21.8884V21.8876V21.8869V21.8862V21.8854V21.8847V21.884V21.8832V21.8824V21.8817V21.881V21.8802V21.8795V21.8787V21.878V21.8773V21.8765V21.8758V21.875V21.8743V21.8735V21.8728V21.8721V21.8713V21.8706V21.8699V21.8691V21.8683V21.8676V21.8669V21.8661V21.8654V21.8647V21.8639V21.8631V21.8624V21.8617V21.8609V21.8602V21.8595V21.8587V21.8579V21.8572V21.8565V21.8557V21.855V21.8543V21.8535V21.8528V21.852V21.8513V21.8505V21.8498V21.8491V21.8483V21.8476V21.8468V21.8461V21.8454V21.8446V21.8439V21.8431V21.8424V21.8416V21.8409V21.8402V21.8394V21.8387V21.838V21.8372V21.8364V21.8357V21.835V21.8342V21.8335V21.8327V21.832V21.8312V21.8305V21.8298V21.829V21.8283V21.8275V21.8268V21.826V21.8253V21.8246V21.8238V21.8231V21.8223V21.8216V21.8208V21.8201V21.8194V21.8186V21.8179V21.8171V21.8164V21.8157V21.8149V21.8142V21.8134V21.8127V21.8119V21.8112V21.8105V21.8097V21.809V21.8082V21.8075V21.8067V21.806V21.8053V21.8045V21.8038V21.8031V21.8023V21.8015V21.8008V21.8001V21.7993V21.7986V21.7979V21.7971V21.7963V21.7956V21.7949V21.7941V21.7934V21.7927V21.7919V21.7912V21.7904V21.7897V21.7889V21.7882V21.7875V21.7867V21.786V21.7852V21.7845V21.7837V21.783V21.7823V21.7815V21.7808V21.78V21.7793V21.7786V21.7778C190.167 19.3148 189.447 17.4297 187.986 16.1509C186.536 14.8822 184.75 14.2504 182.64 14.2504C180.016 14.2504 177.847 15.1395 176.143 16.9204C174.436 18.7054 173.592 21.206 173.592 24.4C173.592 27.5902 174.396 29.9822 176.034 31.5425C177.664 33.0941 179.769 33.8655 182.335 33.8655C184.91 33.8655 187.222 33.4702 189.27 32.6767L189.419 32.6188L189.356 32.4712L189.242 32.2055ZM185.9 16.5531C186.762 17.6547 187.227 19.3612 187.271 21.6988H176.662C176.976 19.5747 177.668 17.9168 178.727 16.7125C179.843 15.4725 181.096 14.8644 182.488 14.8644C183.882 14.8644 185.016 15.4241 185.9 16.5531Z" fill="#E6E6E6" stroke="#E6E6E6" stroke-width="0.674298"/>
<path d="M191.295 5.16216H190.653V5.1582H193.02V5.16216H192.378H191.878V5.66216V8.21663H191.795V5.66216V5.16216H191.295Z" fill="#E6E6E6" stroke="#E6E6E6"/>
<path d="M197.385 5.54123L197.469 5.45224V8.23435H197.385V6.72644V5.54123ZM194.39 5.45239L194.473 5.5414V6.72644V8.23435H194.39V5.45239Z" fill="#E6E6E6" stroke="#E6E6E6"/>
<path d="M19.3956 26.9485L18.4337 26.7563L13.6276 38.3481L12.0034 37.6746L16.8484 25.989L16.0347 25.4422L7.04391 34.3411L5.80692 33.0912L14.6834 24.3056L14.1408 23.4881L2.59745 28.2556L1.92624 26.6303L13.5222 21.8412L13.3314 20.879H0.785156V19.1207H13.3624L13.554 18.1589L1.93752 13.3378L2.61153 11.7138L14.2263 16.5341L14.772 15.7192L5.89126 6.8159L7.13618 5.57411L15.9765 14.4369L16.7922 13.8919L11.9873 2.33277L13.611 1.65785L18.4514 13.3024L19.4131 13.1111L19.4291 0.500633L21.1875 0.50286L21.1716 13.0498L22.1334 13.242L26.9389 1.65166L28.5634 2.32514L23.718 14.0113L24.5316 14.5582L33.523 5.65885L34.7597 6.90853L25.883 15.6946L26.4256 16.5121L37.9695 11.7444L38.6409 13.3696L27.0454 18.1585L27.2362 19.1207H39.7815V20.879H27.2049L27.0132 21.8409L38.6291 26.6617L37.9554 28.2855L26.3408 23.4655L25.7951 24.2805L34.6755 33.1836L33.4306 34.4253L24.5896 25.5618L23.7739 26.1068L28.5792 37.667L26.9556 38.3419L22.1157 26.6986L21.154 26.8899L21.138 39.4993L19.3797 39.497L19.3956 26.9485Z" fill="#E6E6E6" stroke="#E6E6E6"/>
</svg>
