<svg width="191" height="40" viewBox="0 0 191 40" fill="none" xmlns="http://www.w3.org/2000/svg">
<path d="M0.662109 26.6936L14.1874 20.6738L21.9723 25.1887L23.5451 40.0005L13.9515 39.921L15.3669 29.6241L13.7156 28.6737L5.61612 35.0106L0.662109 26.6936Z" fill="#E6E6E6"/>
<path d="M22.8379 24.5551L34.7907 33.3471L39.5087 24.872L29.9149 20.9908V19.0898L39.5087 15.1294L34.7907 6.7334L22.8379 15.5255V24.5551Z" fill="#E6E6E6"/>
<path d="M21.9723 14.8118L23.5451 0L13.9515 0.158369L15.3669 10.4554L13.7156 11.4059L5.53749 5.06925L0.662109 13.3069L14.1874 19.3266L21.9723 14.8118Z" fill="#E6E6E6"/>
<path d="M71.5143 18.2248V32.1013H76.6774V14.417H69.1582V18.2248H71.5143Z" fill="#E6E6E6"/>
<path d="M71.3533 11.9322C71.8266 12.427 72.5473 12.6743 73.5153 12.6743C74.4839 12.6743 75.1934 12.427 75.6449 11.9322C76.1188 11.4157 76.3549 10.7702 76.3549 9.99598C76.3549 9.19982 76.1188 8.5544 75.6449 8.05968C75.1934 7.54342 74.4839 7.28516 73.5153 7.28516C72.5473 7.28516 71.8266 7.54342 71.3533 8.05968C70.9018 8.5544 70.6758 9.19982 70.6758 9.99598C70.6758 10.7702 70.9018 11.4157 71.3533 11.9322Z" fill="#E6E6E6"/>
<path d="M53.5396 31.7146C55.0023 32.3815 56.7986 32.7152 58.9282 32.7152C60.9293 32.7152 62.6499 32.4028 64.0918 31.7791C65.5332 31.1555 66.6409 30.2839 67.4154 29.1651C68.2118 28.0249 68.6094 26.7018 68.6094 25.1957C68.6094 23.7329 68.2336 22.4958 67.4804 21.4845C66.7486 20.452 65.7272 19.6452 64.4143 19.0645C63.102 18.4619 61.5854 18.0854 59.8642 17.935L58.0572 17.7736C56.9815 17.6874 56.207 17.3971 55.7336 16.9022C55.2603 16.4075 55.0236 15.8264 55.0236 15.1597C55.0236 14.6432 55.1531 14.17 55.4106 13.7398C55.6691 13.2879 56.0561 12.933 56.5726 12.6747C57.1105 12.4167 57.7667 12.2875 58.5412 12.2875C59.3584 12.2875 60.0364 12.438 60.5742 12.7394C60.6926 12.803 60.8051 12.8711 60.9106 12.9434L60.9362 12.9613C60.9756 12.9886 61.0145 13.0169 61.0524 13.0455C61.3791 13.2952 61.6393 13.5911 61.8328 13.9333C62.1121 14.4067 62.2528 14.9337 62.2528 15.5146H67.4154C67.4154 13.9656 67.0604 12.6209 66.3509 11.4807C65.6409 10.3191 64.619 9.42626 63.2853 8.80216C61.9724 8.15675 60.3914 7.83398 58.5412 7.83398C56.7768 7.83398 55.2496 8.13542 53.9586 8.73772C52.668 9.31869 51.6568 10.1577 50.9255 11.2547C50.2149 12.352 49.8599 13.6537 49.8599 15.1597C49.8599 17.2464 50.5598 18.9244 51.958 20.194C53.3562 21.4632 55.2283 22.1947 57.5732 22.3882L59.3482 22.5496C60.7891 22.6787 61.8328 22.9693 62.4783 23.4208C63.1233 23.8511 63.4463 24.4428 63.4463 25.1957C63.4463 25.5419 63.3898 25.8664 63.2763 26.1696C63.1921 26.3946 63.0769 26.6079 62.9303 26.8095C62.5854 27.261 62.0801 27.616 61.4133 27.8745C60.7464 28.1325 59.9181 28.2615 58.9282 28.2615C57.8312 28.2615 56.9383 28.1112 56.2501 27.8095C55.5614 27.487 55.0454 27.0675 54.7006 26.5513C54.3781 26.0347 54.2171 25.4756 54.2171 24.873H49.0859C49.0859 26.4006 49.4623 27.7557 50.2149 28.939C50.9681 30.1011 52.0764 31.0259 53.5396 31.7146Z" fill="#E6E6E6"/>
<path d="M88.1975 32.3277C86.4118 32.3277 84.9704 32.1124 83.8734 31.6822C82.7758 31.2302 81.9693 30.4882 81.4528 29.4556C80.9581 28.4013 80.7108 26.9818 80.7108 25.1958V18.1931H78.0322V14.4175H80.7108V9.64148H85.5189V14.4175H90.6826V18.1931H85.5189V25.3896C85.5189 26.2287 85.7343 26.8741 86.1644 27.3256C86.6159 27.7558 87.2508 27.9711 88.0685 27.9711H90.6826V32.3277H88.1975Z" fill="#E6E6E6"/>
<path fill-rule="evenodd" clip-rule="evenodd" d="M96.8997 31.9403C98.0613 32.4563 99.3955 32.7148 100.901 32.7148C102.385 32.7148 103.698 32.4563 104.838 31.9403C105.979 31.4238 106.925 30.7031 107.678 29.7782C108.431 28.8529 108.937 27.7985 109.195 26.6154H104.451C104.236 27.153 103.827 27.605 103.225 27.9707C102.623 28.3363 101.848 28.5192 100.901 28.5192C100.315 28.5192 99.791 28.4499 99.3294 28.3113C98.9781 28.2057 98.6631 28.0602 98.3843 27.8742C97.7388 27.4435 97.2654 26.8411 96.9642 26.0669C96.8806 25.8462 96.8091 25.6155 96.7489 25.3752C96.6876 25.1317 96.638 24.8784 96.6007 24.6146H109.518V22.872C109.518 21.2584 109.173 19.774 108.485 18.4187C107.796 17.0416 106.796 15.9336 105.484 15.0947C104.193 14.2341 102.601 13.8038 100.707 13.8038C99.266 13.8038 97.9749 14.0621 96.8347 14.5784C95.7169 15.0731 94.7809 15.7507 94.0277 16.6113C93.275 17.4719 92.694 18.4509 92.2846 19.5482C91.8976 20.6236 91.7041 21.7531 91.7041 22.9364V23.5818C91.7041 24.7222 91.8976 25.8408 92.2846 26.9381C92.694 28.0138 93.275 28.9925 94.0277 29.8747C94.8022 30.7351 95.759 31.4238 96.8997 31.9403ZM96.6897 21.4236C96.7041 21.3553 96.719 21.288 96.7356 21.2218C96.7803 21.0394 96.8321 20.8645 96.8907 20.6974C96.9237 20.6023 96.9589 20.5096 96.9968 20.4194C97.3193 19.6233 97.7926 19.021 98.4163 18.6123C98.6498 18.4595 98.9024 18.3353 99.1737 18.2397C99.63 18.0793 100.142 17.999 100.707 17.999C101.59 17.999 102.321 18.2035 102.902 18.6123C103.504 18.9994 103.956 19.5695 104.257 20.3225C104.282 20.3833 104.305 20.4451 104.327 20.5077C104.363 20.6075 104.396 20.7099 104.427 20.8149C104.472 20.971 104.512 21.1326 104.547 21.2997C104.573 21.4229 104.595 21.5489 104.615 21.678H96.6402C96.6551 21.5918 96.6716 21.507 96.6897 21.4236Z" fill="#E6E6E6"/>
<path d="M111.648 32.1019V14.4177H115.747V18.8717C115.803 18.6069 115.866 18.3528 115.937 18.1091C115.998 17.9039 116.063 17.7058 116.134 17.5156C116.586 16.3108 117.264 15.4074 118.167 14.8048C119.071 14.181 120.178 13.8691 121.491 13.8691H121.717C123.051 13.8691 124.159 14.181 125.041 14.8048C125.944 15.4074 126.622 16.3108 127.074 17.5156L127.11 17.6066L127.14 17.6897C127.16 17.631 127.182 17.573 127.203 17.5156C127.676 16.3108 128.365 15.4074 129.268 14.8048C130.172 14.181 131.28 13.8691 132.593 13.8691H132.819C134.152 13.8691 135.271 14.181 136.174 14.8048C137.099 15.4074 137.799 16.3108 138.272 17.5156C138.745 18.7205 138.982 20.2265 138.982 22.0336V32.1019H133.819V21.7431C133.819 20.775 133.561 19.9898 133.044 19.3875C132.549 18.7849 131.839 18.4838 130.914 18.4838C129.989 18.4838 129.258 18.7959 128.72 19.4197C128.182 20.022 127.913 20.8288 127.913 21.8401V32.1019H122.717V21.7431C122.717 20.775 122.459 19.9898 121.943 19.3875C121.448 18.7849 120.749 18.4838 119.846 18.4838C118.898 18.4838 118.156 18.7959 117.619 19.4197C117.081 20.022 116.812 20.8288 116.812 21.8401V32.1019H111.648Z" fill="#E6E6E6"/>
<path fill-rule="evenodd" clip-rule="evenodd" d="M152.774 28.6936V32.1008H156.872V21.2579C156.872 19.6228 156.55 18.2891 155.904 17.2563C155.259 16.2021 154.313 15.4169 153.065 14.9006C151.839 14.3844 150.322 14.1261 148.515 14.1261C148.123 14.1261 147.714 14.1303 147.287 14.1388C147.036 14.144 146.777 14.1505 146.513 14.1583C145.803 14.1799 145.115 14.2121 144.448 14.2552L143.939 14.2895C143.677 14.3077 143.431 14.3256 143.2 14.3438C143.026 14.3573 142.862 14.3708 142.706 14.3844V18.741C143.373 18.6978 144.115 18.6547 144.932 18.6118C145.161 18.5999 145.388 18.5887 145.613 18.5783C145.938 18.5632 146.258 18.5503 146.575 18.5388C146.826 18.5297 147.074 18.5217 147.32 18.5149C148.094 18.4933 148.719 18.4827 149.192 18.4827C150.139 18.4827 150.827 18.7085 151.258 19.1603C151.688 19.6122 151.903 20.2898 151.903 21.1935V21.2579H148.708C147.138 21.2579 145.75 21.4624 144.545 21.8712C143.34 22.2583 142.404 22.8715 141.738 23.7105C141.07 24.5282 140.737 25.5824 140.737 26.8732C140.737 28.0566 141.006 29.0784 141.544 29.9388C142.082 30.7778 142.824 31.4233 143.77 31.8748C144.739 32.3268 145.858 32.5528 147.126 32.5528C148.353 32.5528 149.386 32.3268 150.225 31.8748C151.085 31.4233 151.752 30.7778 152.226 29.9388C152.309 29.7975 152.387 29.6509 152.459 29.4985C152.561 29.2831 152.653 29.056 152.733 28.8188L152.774 28.6936ZM151.903 25.5501V24.1301H148.675C147.772 24.1301 147.073 24.3559 146.578 24.8078C146.105 25.2381 145.868 25.8297 145.868 26.5827C145.868 26.9372 145.927 27.2591 146.045 27.5496C146.164 27.8407 146.341 28.0992 146.578 28.3252C147.073 28.7559 147.772 28.9707 148.675 28.9707C148.848 28.9707 149.014 28.9622 149.174 28.9452C149.306 28.9318 149.433 28.9121 149.556 28.8871C149.793 28.8386 150.016 28.7698 150.225 28.6802C150.698 28.4654 151.085 28.1104 151.386 27.6152C151.688 27.1205 151.86 26.432 151.903 25.5501Z" fill="#E6E6E6"/>
<path d="M159.963 32.1015V14.4172H164.062V20.2544C164.258 18.5881 164.753 17.2445 165.546 16.2244C166.622 14.8691 168.17 14.1914 170.193 14.1914H170.871V18.6447H169.58C168.16 18.6447 167.063 19.0318 166.288 19.8064C165.514 20.5594 165.126 21.6567 165.126 23.0979V32.1015H159.963Z" fill="#E6E6E6"/>
<path d="M177.417 23.8403H179.128L184.71 32.1015H190.519L183.44 21.9557L189.26 14.4172H183.839L177.417 22.8259V8.54395H172.254V32.1015H177.417V23.8403Z" fill="#E6E6E6"/>
</svg>
