<svg width="128" height="50" viewBox="0 0 128 50" fill="none" xmlns="http://www.w3.org/2000/svg">
<g clip-path="url(#clip0_456_800)">
<path d="M40.4839 33.7806L42.0132 30.2061C43.6876 31.4462 45.8717 32.1025 48.0562 32.1025C49.6581 32.1025 50.6773 31.4827 50.6773 30.5345C50.6407 27.9083 41.0301 29.9508 40.957 23.3481C40.9204 19.9924 43.9059 17.4027 48.1293 17.4027C50.6407 17.4027 53.1532 18.023 54.9367 19.4458L53.5077 23.0964C51.8667 22.0412 49.8398 21.3056 47.9106 21.3056C46.6 21.3056 45.726 21.9253 45.726 22.7283C45.7626 25.318 55.4468 23.8953 55.556 30.2061C55.556 33.6349 52.6431 36.0424 48.4927 36.0424C45.4352 36.0424 42.6319 35.313 40.4834 33.7806H40.4839ZM101.378 28.9118C100.992 29.5977 100.43 30.1685 99.7508 30.5658C99.0714 30.9631 98.2985 31.1725 97.5114 31.1726C95.0585 31.1726 93.0703 29.1802 93.0703 26.7226C93.0703 24.2649 95.0585 22.2725 97.5114 22.2725C98.2985 22.2726 99.0714 22.482 99.7508 22.8793C100.43 23.2766 100.992 23.8474 101.378 24.5333L105.629 22.1733C104.037 19.3272 100.999 17.4027 97.5114 17.4027C92.3743 17.4027 88.2099 21.575 88.2099 26.7226C88.2099 31.8696 92.3743 36.0424 97.5114 36.0424C100.999 36.0424 104.037 34.1179 105.629 31.2718L101.378 28.9118ZM58.3148 35.6774H63.63V9.64453H58.3154L58.3148 35.6774ZM108.314 9.64453V35.6774H113.629V27.878L119.927 35.6774H126.721L118.712 26.4119L126.138 17.7661H119.636L113.629 24.9541V9.64453H108.314ZM80.0053 17.7672V19.8833C79.1318 18.424 76.9838 17.4027 74.7266 17.4027C70.0667 17.4027 66.39 21.5248 66.39 26.7043C66.39 31.8837 70.0667 36.0424 74.7266 36.0424C76.9838 36.0424 79.1318 35.0211 80.0053 33.5618V35.6774H85.3205V17.7672H80.0053ZM80.0053 28.9478C79.2409 30.2244 77.639 31.1721 75.8555 31.1721C73.402 31.1721 71.4138 29.1802 71.4138 26.7226C71.4138 24.2649 73.402 22.2725 75.8555 22.2725C77.639 22.2725 79.2409 23.2572 80.0053 24.5699V28.9478Z" fill="#E6E6E6"/>
<path d="M12.415 9.06641C10.6925 9.06641 9.29634 10.4657 9.29634 12.1913C9.29593 12.6012 9.37627 13.0073 9.53277 13.3862C9.68928 13.7651 9.91888 14.1095 10.2085 14.3996C10.4981 14.6898 10.842 14.9201 11.2206 15.0774C11.5992 15.2346 12.005 15.3158 12.415 15.3162H15.5341V12.1913C15.5348 11.3633 15.2066 10.5689 14.6216 9.98293C14.0367 9.39692 13.243 9.06724 12.415 9.06641ZM12.415 17.3994H4.09812C2.37564 17.3994 0.979492 18.7987 0.979492 20.5248C0.979492 22.2505 2.37564 23.6497 4.09812 23.6497H12.4155C14.1374 23.6497 15.5341 22.2505 15.5341 20.5248C15.5341 18.7987 14.1374 17.3994 12.415 17.3994Z" fill="#E6E6E6"/>
<path d="M32.1669 20.5248C32.1669 18.7987 30.7703 17.3994 29.0478 17.3994C27.3253 17.3994 25.9292 18.7987 25.9292 20.5248V23.6497H29.0478C29.8758 23.6489 30.6695 23.3192 31.2545 22.7332C31.8394 22.1472 32.1676 21.3528 32.1669 20.5248ZM23.8501 20.5248V12.1913C23.8508 11.3633 23.5225 10.5689 22.9376 9.98293C22.3527 9.39691 21.5589 9.06724 20.7309 9.06641C19.0085 9.06641 17.6123 10.4657 17.6123 12.1913V20.5243C17.6123 22.251 19.0085 23.6503 20.7309 23.6503C21.5589 23.6494 22.3527 23.3197 22.9376 22.7337C23.5225 22.1477 23.8508 21.3534 23.8501 20.5254" fill="#E6E6E6"/>
<path d="M20.7309 40.3177C21.5589 40.3169 22.3527 39.9872 22.9376 39.4012C23.5225 38.8152 23.8508 38.0208 23.8501 37.1928C23.8508 36.3648 23.5225 35.5705 22.9376 34.9845C22.3527 34.3984 21.5589 34.0688 20.7309 34.0679H17.6123V37.1928C17.6123 38.9184 19.0085 40.3177 20.7309 40.3177ZM20.7309 31.9847H29.0483C30.7703 31.9847 32.1669 30.5854 32.1669 28.8593C32.1676 28.0313 31.8394 27.2369 31.2545 26.6509C30.6695 26.0649 29.8758 25.7352 29.0478 25.7344H20.7309C19.0085 25.7344 17.6123 27.1337 17.6123 28.8593C17.6119 29.2692 17.6922 29.6752 17.8487 30.0541C18.0052 30.4331 18.2348 30.7774 18.5244 31.0676C18.814 31.3578 19.1579 31.5881 19.5365 31.7453C19.9151 31.9026 20.321 31.9837 20.7309 31.9842" fill="#E6E6E6"/>
<path d="M0.979494 28.8593C0.979082 29.2692 1.05942 29.6752 1.21592 30.0541C1.37243 30.4331 1.60203 30.7774 1.89162 31.0676C2.18121 31.3578 2.52512 31.5881 2.90371 31.7453C3.2823 31.9026 3.68816 31.9837 4.09812 31.9842C4.92611 31.9833 5.71986 31.6536 6.3048 31.0676C6.88974 30.4816 7.21795 29.6873 7.21726 28.8593V25.7344H4.09812C2.37564 25.7344 0.979494 27.1337 0.979494 28.8593ZM9.29634 28.8593V37.1923C9.29634 38.9184 10.6925 40.3177 12.415 40.3177C13.243 40.3169 14.0367 39.9872 14.6216 39.4012C15.2066 38.8152 15.5348 38.0208 15.5341 37.1928V28.8593C15.5345 28.4493 15.4542 28.0432 15.2976 27.6643C15.1411 27.2853 14.9114 26.9409 14.6218 26.6507C14.3322 26.3606 13.9882 26.1303 13.6095 25.9731C13.2309 25.8158 12.825 25.7347 12.415 25.7344C10.6925 25.7344 9.29634 27.1337 9.29634 28.8593Z" fill="#E6E6E6"/>
</g>
<defs>
<clipPath id="clip0_456_800">
<rect width="126.042" height="50" fill="white" transform="translate(0.979248)"/>
</clipPath>
</defs>
</svg>
