<svg width="147" height="40" viewBox="0 0 147 40" fill="none" xmlns="http://www.w3.org/2000/svg">
<path d="M55.0307 7.24011H60.2505L54.5624 31.7204H45.3824L39.6943 7.24011H44.9144L49.1627 27.4003H50.7825L55.0307 7.24011Z" fill="#E6E6E6"/>
<path d="M65.2272 24.7713C65.2511 25.8754 65.5391 26.6793 66.0911 27.1833C66.667 27.6634 67.483 27.9034 68.5392 27.9034C70.7711 27.9034 72.7632 27.8314 74.5152 27.6874L75.5232 27.5794L75.5953 31.1436C72.8353 31.8155 70.339 32.1516 68.1071 32.1516C65.3953 32.1516 63.4271 31.4315 62.2032 29.9914C60.9789 28.5514 60.3672 26.2113 60.3672 22.9713C60.3672 16.5153 63.0192 13.2872 68.323 13.2872C73.555 13.2872 76.1712 15.9993 76.1712 21.4233L75.8112 24.7713H65.2272ZM71.4191 21.0993C71.4191 19.6593 71.1913 18.6633 70.7353 18.1113C70.2792 17.5353 69.4752 17.2473 68.323 17.2473C67.1951 17.2473 66.391 17.5473 65.9111 18.1473C65.4551 18.7233 65.2153 19.7073 65.191 21.0993H71.4191Z" fill="#E6E6E6"/>
<path d="M78.8984 31.7195V13.7192H83.6864V15.6272C85.7024 14.4272 87.6225 13.6472 89.4465 13.2872V18.1473C87.5022 18.5553 85.8343 18.9753 84.4423 19.4073L83.7223 19.6593V31.7195H78.8984Z" fill="#E6E6E6"/>
<path d="M101.545 17.8238H97.1171V25.2039C97.1171 25.9239 97.1291 26.4399 97.1533 26.7519C97.2011 27.0399 97.3333 27.2919 97.5492 27.5079C97.7893 27.7239 98.149 27.8319 98.6293 27.8319L101.365 27.7599L101.581 31.6121C99.9731 31.9721 98.7492 32.1521 97.9092 32.1521C95.7491 32.1521 94.2731 31.6718 93.4813 30.712C92.6892 29.7279 92.2933 27.9279 92.2933 25.3119V17.8238H90.1689V13.7198H92.2933V8.7157H97.1171V13.7198H101.545V17.8238Z" fill="#E6E6E6"/>
<path d="M103.967 31.7189V13.7186H108.791V31.7189H103.967ZM103.967 11.4146V6.51855H108.791V11.4146H103.967Z" fill="#E6E6E6"/>
<path d="M128.835 33.9515C128.835 36.0157 128.043 37.5395 126.459 38.5236C124.875 39.5077 122.727 39.9996 120.015 39.9996C117.327 39.9996 115.251 39.6396 113.787 38.9195C112.347 38.1994 111.627 36.8915 111.627 34.9957C111.627 33.4835 112.491 32.0554 114.219 30.7116C113.331 30.1114 112.887 29.1994 112.887 27.9755C112.887 27.4955 113.247 26.7035 113.967 25.5995L114.291 25.0955C112.659 23.9195 111.843 22.1915 111.843 19.9114C111.843 17.6074 112.527 15.9394 113.895 14.9074C115.287 13.8754 117.123 13.3594 119.403 13.3594C120.435 13.3594 121.455 13.4794 122.463 13.7194L123.039 13.8274L128.835 13.6474V17.4994L126.135 17.2834C126.663 18.0994 126.927 18.9154 126.927 19.7314C126.927 22.1314 126.315 23.7875 125.091 24.6995C123.867 25.6115 121.947 26.0675 119.331 26.0675C118.779 26.0675 118.287 26.0195 117.855 25.9235C117.615 26.5475 117.495 27.0635 117.495 27.4715C117.495 27.8555 117.699 28.1195 118.107 28.2635C118.515 28.4075 119.475 28.4915 120.987 28.5155C124.011 28.5395 126.075 28.9475 127.179 29.7394C128.283 30.5077 128.835 31.9116 128.835 33.9515ZM116.379 34.4916C116.379 35.5235 117.639 36.0396 120.159 36.0396C122.703 36.0396 123.975 35.4394 123.975 34.2395C123.975 33.5915 123.759 33.1717 123.327 32.9797C122.895 32.8117 121.983 32.7157 120.591 32.6914L117.351 32.4397C116.703 33.0877 116.379 33.7715 116.379 34.4916ZM116.667 19.7674C116.667 21.5195 117.579 22.3954 119.403 22.3954C121.251 22.3954 122.175 21.5195 122.175 19.7674C122.175 17.9914 121.251 17.1034 119.403 17.1034C117.579 17.1034 116.667 17.9914 116.667 19.7674Z" fill="#E6E6E6"/>
<path d="M132.01 15.7713C133.282 14.1152 135.406 13.2872 138.383 13.2872C141.358 13.2872 143.483 14.1152 144.754 15.7713C146.026 17.4033 146.662 19.7073 146.662 22.6833C146.662 28.9953 143.902 32.1516 138.383 32.1516C132.863 32.1516 130.103 28.9953 130.103 22.6833C130.103 19.7073 130.739 17.4033 132.01 15.7713ZM135.719 26.7513C136.222 27.6153 137.11 28.0474 138.383 28.0474C139.655 28.0474 140.53 27.6153 141.011 26.7513C141.514 25.8873 141.767 24.5313 141.767 22.6833C141.767 20.8353 141.514 19.4913 141.011 18.6513C140.53 17.8113 139.655 17.3913 138.383 17.3913C137.11 17.3913 136.222 17.8113 135.719 18.6513C135.239 19.4913 134.998 20.8353 134.998 22.6833C134.998 24.5313 135.239 25.8873 135.719 26.7513Z" fill="#E6E6E6"/>
<path fill-rule="evenodd" clip-rule="evenodd" d="M21.3964 5.86664C19.2406 4.97366 16.9083 4.5886 14.5799 4.7412C12.2515 4.89383 9.98939 5.58003 7.96858 6.74672L5.92967 7.92388L3.57535 3.84609L5.61426 2.66893C8.26056 1.14112 11.2228 0.242488 14.2719 0.0426605C17.3211 -0.157203 20.3753 0.347056 23.1984 1.51639C26.0214 2.68577 28.5376 4.48885 30.5524 6.78624C32.567 9.08359 34.0263 11.8137 34.8174 14.7652C35.6081 17.7167 35.7095 20.8107 35.1133 23.8076C34.5171 26.8046 33.2396 29.6243 31.3793 32.0485C29.5191 34.4727 27.1263 36.4366 24.3858 37.788C21.6452 39.1393 18.1104 39.8424 15.5749 39.8424C13.0393 39.8424 11.5588 39.4621 9.61455 38.6569C7.72493 37.8742 6.00801 36.7271 4.56174 35.2808C3.11549 33.8345 1.96829 32.1173 1.18556 30.2277C0.402879 28.3382 0 26.3129 0 24.2676C0 22.2223 0.402879 20.197 1.18556 18.3074C1.96829 16.4178 3.11549 14.7009 4.56174 13.2546C6.00801 11.8084 7.72493 10.6611 9.61455 9.87844C11.5042 9.09572 13.5295 8.69288 15.5747 8.69288C17.6201 8.69288 19.6453 9.09572 21.5349 9.87844C23.4246 10.6611 25.1415 11.8084 26.5878 13.2546C28.034 14.7009 29.1811 16.4178 29.9639 18.3074C30.3007 19.1202 30.5669 19.9581 30.7614 20.812C30.8563 19.1911 30.6915 17.5609 30.2692 15.9839C29.665 13.73 28.5508 11.6452 27.0123 9.89086C25.4737 8.1365 23.5522 6.75958 21.3964 5.86664ZM6.171 29.7119C6.43806 24.6499 10.6272 20.6276 15.7558 20.6276C20.6862 20.6276 24.7484 24.345 25.2923 29.1298C25.4076 28.8994 25.5148 28.6646 25.6137 28.4259C26.1598 27.1076 26.4408 25.6946 26.4408 24.2676C26.4408 22.8407 26.1598 21.4277 25.6137 20.1093C25.0677 18.791 24.2673 17.5932 23.2582 16.5841C22.2493 15.5751 21.0514 14.7747 19.733 14.2286C18.4147 13.6826 17.0017 13.4015 15.5747 13.4015C14.1478 13.4015 12.7348 13.6826 11.4165 14.2286C10.0982 14.7747 8.90028 15.5751 7.89125 16.5841C6.88226 17.5932 6.08187 18.791 5.53577 20.1093C4.98971 21.4277 4.70864 22.8407 4.70864 24.2676C4.70864 25.6946 4.98971 27.1076 5.53577 28.4259C5.71937 28.8691 5.93166 29.2986 6.171 29.7119ZM20.6456 30.2259C20.6456 32.9265 18.4564 35.1156 15.7558 35.1156C13.0553 35.1156 10.8661 32.9265 10.8661 30.2259C10.8661 27.5254 13.0553 25.3362 15.7558 25.3362C18.4564 25.3362 20.6456 27.5254 20.6456 30.2259Z" fill="#E6E6E6"/>
</svg>
