<svg width="146" height="147" viewBox="0 0 146 147" fill="none" xmlns="http://www.w3.org/2000/svg">
<path d="M71.7091 62.8001C71.7085 60.483 70.9409 58.2317 69.5269 56.3999C68.1129 54.5682 66.1326 53.2598 63.8972 52.6804C61.6618 52.1009 59.2979 52.2833 57.1769 53.1988C55.056 54.1142 53.2982 55.711 52.1797 57.7381C51.0612 59.7652 50.6454 62.1078 50.9977 64.3978C51.3499 66.6878 52.4502 68.7955 54.1257 70.3898C55.8012 71.984 57.957 72.9743 60.2542 73.2053C62.5515 73.4362 64.8601 72.8946 66.8174 71.6656C66.1465 75.7135 64.8058 79.6202 62.8507 83.2241C60.1466 88.1587 56.7007 91.6338 53.5674 94.7743C53.1762 95.1669 52.9564 95.6994 52.9564 96.2547C52.9564 96.8099 53.1762 97.3424 53.5674 97.735C53.9586 98.1277 54.4892 98.3482 55.0424 98.3482C55.5956 98.3482 56.1262 98.1277 56.5174 97.735L56.5632 97.6849C59.6757 94.5611 63.4966 90.7263 66.5049 85.2398C69.5424 79.6863 71.7091 72.5438 71.7091 62.8001ZM95.984 71.6656C94.0268 72.8946 91.7182 73.4362 89.4209 73.2053C87.1236 72.9743 84.9679 71.984 83.2924 70.3898C81.6169 68.7955 80.5166 66.6878 80.1643 64.3978C79.8121 62.1078 80.2279 59.7652 81.3464 57.7381C82.4648 55.711 84.2226 54.1142 86.3436 53.1988C88.4645 52.2833 90.8284 52.1009 93.0638 52.6804C95.2993 53.2598 97.2795 54.5682 98.6935 56.3999C100.108 58.2317 100.875 60.483 100.876 62.8001C100.876 72.5438 98.709 79.6863 95.6674 85.2398C92.6632 90.7263 88.8424 94.5652 85.7341 97.6849L85.6841 97.735C85.2929 98.1277 84.7623 98.3482 84.2091 98.3482C83.6558 98.3482 83.1252 98.1277 82.734 97.735C82.3429 97.3424 82.1231 96.8099 82.1231 96.2547C82.1231 95.6994 82.3429 95.1669 82.734 94.7743C85.8674 91.6338 89.3132 88.1629 92.0174 83.2241C93.9729 79.6189 95.3136 75.7149 95.984 71.6656Z" fill="#1CCD83"/>
<path d="M49.9779 15.5623L46.47 6.22992L43.6006 7.30846L43.208 6.26379L50.0331 3.69833L50.4258 4.74301L47.5843 5.81107L51.0922 15.1435L49.9779 15.5623Z" fill="#111111"/>
<path d="M56.5261 13.2514L54.2536 2.40084L57.9821 1.61998C58.6909 1.47154 59.3418 1.48218 59.9348 1.65192C60.5258 1.81195 61.0198 2.11391 61.4168 2.55781C61.8215 2.98996 62.093 3.53616 62.2313 4.19642C62.3919 4.96348 62.3253 5.66158 62.0314 6.29073C61.7472 6.91784 61.2837 7.41525 60.6411 7.78294L64.0996 11.6652L62.7305 11.952L59.1007 7.83191L59.9817 8.11869L56.8066 8.78364L57.6912 13.0073L56.5261 13.2514ZM56.5779 7.69131L59.1995 7.14227C59.6655 7.04466 60.055 6.87187 60.368 6.62389C60.6789 6.3662 60.8969 6.05196 61.0219 5.68116C61.1449 5.30065 61.1587 4.88222 61.0631 4.42587C60.9675 3.96952 60.7881 3.59661 60.5247 3.30716C60.2614 3.0177 59.9367 2.82219 59.5505 2.72062C59.1623 2.60934 58.7352 2.60251 58.2691 2.70011L55.6475 3.24916L56.5779 7.69131Z" fill="#111111"/>
<path d="M70.1956 11.4116C69.4125 11.4426 68.7171 11.3063 68.1094 11.0027C67.5017 10.6992 67.0232 10.2713 66.6737 9.71927C66.3238 9.15729 66.1344 8.50954 66.1053 7.77602L65.8099 0.311886L66.9994 0.264809L67.2948 7.72894C67.316 8.26421 67.4486 8.73055 67.6927 9.12794C67.9463 9.51502 68.2808 9.81452 68.6963 10.0264C69.1212 10.228 69.6063 10.318 70.1515 10.2965C70.6967 10.2749 71.1682 10.147 71.5659 9.91285C71.9732 9.66838 72.283 9.34339 72.4953 8.93786C72.7172 8.52203 72.8175 8.04648 72.7963 7.51121L72.5009 0.0470772L73.6904 0L73.9858 7.46413C74.0148 8.19766 73.8772 8.85835 73.5728 9.44623C73.268 10.0242 72.8248 10.4885 72.243 10.8391C71.6711 11.1894 70.9886 11.3802 70.1956 11.4116Z" fill="#111111"/>
<path d="M80.4221 11.845C79.7234 11.7557 79.1057 11.5417 78.5689 11.2031C78.0322 10.8644 77.5953 10.4486 77.2583 9.95545C76.9225 9.45249 76.7056 8.91971 76.6075 8.35712L77.7212 8.09442C77.8814 8.87498 78.207 9.49665 78.6979 9.95943C79.1901 10.4124 79.8101 10.6866 80.5579 10.7822C81.0303 10.8426 81.453 10.8216 81.8261 10.7193C82.2103 10.6084 82.5184 10.4277 82.7504 10.1774C82.9825 9.92701 83.1217 9.61978 83.1683 9.25569C83.2374 8.71448 83.1433 8.2774 82.8858 7.94446C82.6284 7.61152 82.2341 7.33111 81.7032 7.10324L79.8008 6.26002C79.0523 5.93434 78.5005 5.47877 78.1453 4.89331C77.7999 4.30912 77.6706 3.67753 77.7574 2.99855C77.8316 2.41798 78.0397 1.92453 78.3817 1.51819C78.7249 1.10201 79.1589 0.797444 79.6836 0.604485C80.2181 0.412782 80.8003 0.357178 81.4301 0.437673C82.0894 0.52194 82.664 0.720406 83.1541 1.03307C83.6553 1.33715 84.0628 1.70927 84.3766 2.14941C84.6904 2.58956 84.8952 3.06078 84.991 3.56307L83.9049 3.8443C83.7518 3.16466 83.4457 2.62548 82.9866 2.22677C82.5373 1.82932 81.9781 1.58783 81.309 1.5023C80.8859 1.44822 80.5025 1.47423 80.1589 1.58033C79.8252 1.68769 79.5521 1.86781 79.3398 2.12069C79.1274 2.37358 78.9974 2.68699 78.9496 3.06092C78.8917 3.51357 78.9822 3.94018 79.221 4.34074C79.4611 4.73146 79.865 5.05311 80.4328 5.3057L82.1085 6.04493C82.9418 6.41146 83.549 6.8641 83.9301 7.40287C84.3113 7.94164 84.4554 8.57512 84.3623 9.30329C84.2868 9.89371 84.0677 10.3957 83.7048 10.8094C83.353 11.2145 82.8901 11.5104 82.3162 11.697C81.7521 11.885 81.1207 11.9343 80.4221 11.845Z" fill="#111111"/>
<path d="M88.4722 13.2182L91.2268 3.63646L88.2807 2.78951L88.5891 1.71692L95.5967 3.7315L95.2883 4.80409L92.3709 3.96537L89.6162 13.5472L88.4722 13.2182Z" fill="#111111"/>
<path d="M95.1029 15.2797L99.7242 5.20299L106.217 8.1805L105.751 9.19494L100.341 6.71368L98.7344 10.2169L103.874 12.5741L103.409 13.5885L98.2692 11.2313L96.6502 14.7615L102.06 17.2428L101.595 18.2572L95.1029 15.2797Z" fill="#111111"/>
<path d="M103.852 19.4588L110.075 10.2845L113.092 12.331C114.004 12.9491 114.668 13.6754 115.085 14.5097C115.507 15.3357 115.67 16.2189 115.571 17.1591C115.478 18.0911 115.115 19.0251 114.48 19.961C113.851 20.8887 113.117 21.572 112.28 22.0111C111.443 22.4501 110.56 22.6301 109.63 22.5511C108.701 22.4721 107.78 22.1235 106.869 21.5054L103.852 19.4588ZM105.464 19.2035L107.496 20.5818C108.202 21.0607 108.914 21.3278 109.631 21.3831C110.355 21.4302 111.042 21.2734 111.695 20.9127C112.355 20.5575 112.939 20.0064 113.445 19.2593C113.952 18.5122 114.246 17.7703 114.326 17.0336C114.412 16.2886 114.296 15.5929 113.979 14.9465C113.668 14.2919 113.164 13.728 112.466 13.2546L110.434 11.8763L105.464 19.2035Z" fill="#111111"/>
<path d="M117.052 29.8319L125.487 22.6383L128.51 26.1822C128.915 26.6577 129.175 27.1463 129.29 27.648C129.419 28.1508 129.406 28.6318 129.25 29.0908C129.1 29.5575 128.814 29.971 128.391 30.3315C127.953 30.7049 127.471 30.9269 126.945 30.9977C126.433 31.0696 125.919 30.9795 125.404 30.7276L125.666 30.4845C125.829 30.9196 125.9 31.3475 125.881 31.7682C125.868 32.1964 125.769 32.6002 125.584 32.9795C125.407 33.3525 125.152 33.6806 124.82 33.9638C124.065 34.6075 123.259 34.8777 122.402 34.7745C121.558 34.6723 120.786 34.2098 120.084 33.3871L117.052 29.8319ZM118.674 30.0135L120.933 32.6629C121.39 33.1988 121.894 33.5062 122.443 33.585C123.007 33.665 123.538 33.4925 124.036 33.0677C124.527 32.6493 124.777 32.1555 124.787 31.5863C124.811 31.0182 124.595 30.4662 124.138 29.9303L121.878 27.2809L118.674 30.0135ZM122.693 26.5857L124.885 29.1558C125.271 29.6087 125.712 29.8584 126.208 29.9048C126.711 29.9588 127.17 29.8087 127.585 29.4547C128.007 29.0942 128.209 28.681 128.19 28.215C128.184 27.7502 127.989 27.2913 127.602 26.8384L125.411 24.2683L122.693 26.5857Z" fill="#111111"/>
<path d="M124.845 39.9733L129.252 37.3098L132.324 30.9146L133.009 32.048L130.345 37.6226L130.099 37.2151L136.265 37.4347L136.95 38.5681L129.867 38.3286L125.461 40.992L124.845 39.9733Z" fill="#111111"/>
<path d="M131.93 56.5796C131.715 55.8259 131.651 55.0962 131.738 54.3904C131.835 53.6818 132.06 53.0244 132.414 52.4181C132.779 51.8187 133.259 51.2949 133.853 50.8467C134.447 50.3986 135.145 50.0602 135.946 49.8315C136.748 49.6028 137.519 49.5219 138.26 49.5889C139.001 49.6559 139.685 49.8476 140.312 50.1639C140.942 50.4897 141.48 50.9293 141.926 51.4827C142.383 52.0334 142.719 52.6855 142.934 53.4391C143.141 54.1641 143.197 54.8495 143.103 55.4954C143.011 56.1508 142.816 56.7326 142.518 57.2408C142.231 57.7558 141.888 58.1631 141.489 58.4628L140.711 57.5244C141.254 57.0803 141.633 56.5285 141.848 55.8691C142.074 55.2164 142.078 54.5085 141.86 53.7454C141.637 52.9632 141.252 52.3199 140.706 51.8155C140.16 51.3112 139.504 50.9826 138.738 50.8298C137.982 50.6742 137.16 50.723 136.273 50.9762C135.395 51.2267 134.672 51.6189 134.102 52.1529C133.532 52.6869 133.148 53.3123 132.951 54.029C132.762 54.7429 132.78 55.491 133.003 56.2733C133.221 57.0364 133.593 57.6368 134.121 58.0743C134.651 58.5214 135.264 58.7901 135.96 58.8802L135.794 60.0881C135.306 60.0417 134.8 59.8766 134.276 59.5931C133.763 59.3163 133.295 58.9237 132.872 58.4153C132.451 57.9165 132.137 57.3045 131.93 56.5796Z" fill="#111111"/>
<path d="M133.498 62.4653L144.513 61.2168L144.647 62.3997L134.741 63.5224L135.294 68.4017L134.185 68.5274L133.498 62.4653Z" fill="#111111"/>
<path d="M134.285 71.4688L145.369 71.6465L145.35 72.8367L134.266 72.6591L134.285 71.4688Z" fill="#111111"/>
<path d="M134.115 78.1778L145.077 79.8331L144.01 86.8957L142.906 86.729L143.795 80.8436L139.984 80.2681L139.14 85.8593L138.037 85.6926L138.881 80.1014L135.041 79.5215L134.152 85.4069L133.048 85.2403L134.115 78.1778Z" fill="#111111"/>
<path d="M132.514 87.7482L143.053 91.1872L142.73 92.1774L131.843 95.4651L131.967 95.0831L140.837 97.9774L140.468 99.1091L129.929 95.6701L130.252 94.6799L141.196 91.4107L141.071 91.7927L132.145 88.8799L132.514 87.7482Z" fill="#111111"/>
<path d="M128.051 99.5936L136.922 104.143L138.321 101.416L139.314 101.925L135.987 108.413L134.993 107.904L136.379 105.203L127.507 100.653L128.051 99.5936Z" fill="#111111"/>
<path d="M122.424 108.625C122.837 108.054 123.321 107.615 123.875 107.306C124.429 106.997 125.004 106.813 125.598 106.753C126.2 106.699 126.772 106.764 127.313 106.948L127.01 108.051C126.248 107.818 125.546 107.806 124.905 108.015C124.271 108.23 123.734 108.643 123.291 109.253C123.012 109.639 122.828 110.02 122.739 110.396C122.652 110.787 122.663 111.144 122.772 111.467C122.88 111.791 123.083 112.06 123.38 112.276C123.822 112.596 124.251 112.723 124.667 112.656C125.082 112.59 125.517 112.378 125.972 112.021L127.623 110.756C128.268 110.255 128.932 109.989 129.616 109.957C130.294 109.934 130.911 110.123 131.465 110.525C131.939 110.868 132.272 111.287 132.465 111.782C132.666 112.283 132.725 112.81 132.643 113.363C132.556 113.924 132.325 114.461 131.953 114.975C131.563 115.514 131.114 115.923 130.604 116.203C130.097 116.498 129.575 116.677 129.039 116.741C128.502 116.806 127.99 116.76 127.503 116.603L127.777 115.515C128.447 115.707 129.067 115.696 129.637 115.484C130.201 115.28 130.681 114.905 131.077 114.359C131.327 114.014 131.488 113.665 131.559 113.312C131.625 112.968 131.598 112.642 131.477 112.334C131.357 112.027 131.144 111.762 130.839 111.541C130.47 111.274 130.052 111.149 129.586 111.166C129.128 111.19 128.652 111.39 128.158 111.768L126.706 112.884C125.985 113.44 125.297 113.756 124.641 113.832C123.986 113.909 123.361 113.732 122.766 113.301C122.284 112.952 121.949 112.519 121.76 112.002C121.573 111.499 121.535 110.951 121.646 110.358C121.751 109.773 122.01 109.195 122.424 108.625Z" fill="#111111"/>
<path d="M73.4261 134.278L73.2026 145.353L76.6079 145.422L76.5829 146.662L68.4829 146.498L68.508 145.259L71.8802 145.327L72.1037 134.251L73.4261 134.278Z" fill="#111111"/>
<path d="M61.6223 133.001C62.4327 133.165 63.1283 133.507 63.7092 134.029C64.277 134.559 64.6804 135.208 64.9193 135.976C65.1582 136.744 65.1896 137.565 65.0133 138.44C64.8371 139.316 64.4978 140.051 63.9955 140.647C63.491 141.254 62.8862 141.689 62.1812 141.952C61.4653 142.212 60.713 142.263 59.9242 142.104C59.2974 141.978 58.7649 141.747 58.3265 141.411C57.8751 141.084 57.5168 140.686 57.2516 140.217C56.9841 139.758 56.8086 139.262 56.725 138.728C56.6392 138.204 56.6485 137.684 56.753 137.165C56.7748 137.057 56.8052 136.934 56.8443 136.795C56.8812 136.668 56.9246 136.536 56.9745 136.4L64.3169 137.878L64.0884 139.013L57.443 137.675L58.1244 137.306C57.9075 137.881 57.8711 138.424 58.0152 138.937C58.1464 139.458 58.4009 139.897 58.7787 140.254C59.1544 140.622 59.6124 140.861 60.1526 140.97C60.6929 141.078 61.2237 141.039 61.7449 140.852C62.2553 140.662 62.6913 140.34 63.0529 139.884C63.4123 139.439 63.6347 138.865 63.7199 138.163C63.9132 137.482 63.927 136.855 63.7613 136.282C63.5826 135.718 63.2839 135.247 62.865 134.871C62.4353 134.492 61.9449 134.247 61.3938 134.136C60.7563 134.008 60.191 134.051 59.6978 134.267C59.2047 134.482 58.7773 134.79 58.4158 135.189L57.4894 134.429C57.7406 134.075 58.0783 133.766 58.5023 133.503C58.9242 133.251 59.4043 133.072 59.9427 132.967C60.4681 132.87 61.028 132.882 61.6223 133.001Z" fill="#111111"/>
<path d="M51.191 130.057C51.9777 130.376 52.5866 130.854 53.0178 131.493C53.449 132.131 53.6587 132.846 53.6471 133.638L52.4955 133.707C52.4633 133.111 52.2977 132.581 51.9988 132.115C51.6898 131.645 51.2798 131.306 50.769 131.099C50.2786 130.901 49.8172 130.85 49.3849 130.949C48.9485 131.058 48.6516 131.306 48.4944 131.694C48.3785 131.98 48.3692 132.238 48.4665 132.468C48.5596 132.708 48.6948 132.917 48.8721 133.096C49.0494 133.275 49.2115 133.418 49.3584 133.525L50.4019 134.34C51.071 134.861 51.4955 135.383 51.6754 135.908C51.8553 136.433 51.8418 136.951 51.6349 137.461C51.4404 137.942 51.1482 138.311 50.7582 138.569C50.3682 138.827 49.9244 138.969 49.4269 138.993C48.9294 139.018 48.4253 138.926 47.9144 138.72C47.2197 138.438 46.6659 138 46.253 137.404C45.8257 136.815 45.6249 136.151 45.6506 135.412L46.8176 135.35C46.8357 135.892 46.9871 136.37 47.2719 136.782C47.5423 137.201 47.9125 137.506 48.3825 137.696C48.8422 137.882 49.2576 137.914 49.6286 137.79C49.9996 137.667 50.2575 137.427 50.4024 137.069C50.5141 136.793 50.5315 136.545 50.4547 136.323C50.3779 136.102 50.2641 135.913 50.1133 135.757C49.9523 135.597 49.8085 135.467 49.6821 135.368L48.4796 134.417C47.8941 133.954 47.5003 133.444 47.298 132.886C47.0855 132.325 47.091 131.768 47.3144 131.216C47.4965 130.767 47.7876 130.415 48.1879 130.161C48.5779 129.903 49.0339 129.76 49.556 129.734C50.0739 129.718 50.6189 129.825 51.191 130.057Z" fill="#111111"/>
<path d="M41.1546 125.226C41.83 125.643 42.229 126.161 42.3516 126.781C42.4743 127.4 42.3098 128.076 41.8583 128.808L39.2096 133.099L40.6025 133.959L39.9512 135.014L39.5995 134.797C39.2806 134.6 38.9636 134.547 38.6487 134.637C38.3279 134.737 38.0691 134.947 37.8723 135.266L37.4815 135.899L36.4263 135.248L37.5031 133.503L35.8429 132.478L36.4942 131.423L38.1544 132.448L40.803 128.156C40.9593 127.903 41.0608 127.655 41.1073 127.412C41.1481 127.178 41.1141 126.949 41.0053 126.727C40.8872 126.499 40.6734 126.289 40.3638 126.098C40.2888 126.052 40.1968 126.001 40.0878 125.947C39.9789 125.893 39.884 125.847 39.8031 125.81L40.385 124.867C40.5149 124.909 40.6531 124.968 40.7996 125.046C40.9519 125.114 41.0702 125.174 41.1546 125.226Z" fill="#111111"/>
<path d="M35.8148 121.781L30.1125 128.565L29.1633 127.767L34.8655 120.983L35.8148 121.781ZM29.0593 129.818L27.8891 131.21L26.9399 130.413L28.1101 129.02L29.0593 129.818Z" fill="#111111"/>
<path d="M29.4641 116.552L22.6152 122.176L21.8282 121.218L23.1316 120.148L23.0658 120.458C22.5116 120.6 21.9733 120.578 21.451 120.394C20.9218 120.201 20.4752 119.883 20.1115 119.44C19.6778 118.912 19.4352 118.312 19.3836 117.641C19.3319 116.971 19.4712 116.35 19.8014 115.779L20.0345 116.037C19.3664 116.301 18.7247 116.335 18.1094 116.142C17.4785 115.947 16.9532 115.594 16.5335 115.083C16.1558 114.623 15.9203 114.11 15.827 113.545C15.7267 112.971 15.778 112.408 15.981 111.856C16.1685 111.303 16.505 110.827 16.9906 110.428L21.4372 106.777L22.2242 107.735L18.1481 111.083C17.7307 111.425 17.4401 111.792 17.2764 112.183C17.1057 112.566 17.0486 112.948 17.1051 113.33C17.1531 113.718 17.3135 114.078 17.5863 114.411C17.8521 114.734 18.1744 114.962 18.5531 115.093C18.9232 115.231 19.3204 115.254 19.7444 115.163C20.16 115.078 20.5722 114.868 20.9811 114.533L25.0572 111.185L25.8441 112.144L21.768 115.491C21.3506 115.834 21.06 116.201 20.8963 116.592C20.7256 116.974 20.6685 117.356 20.725 117.738C20.773 118.126 20.9334 118.487 21.2062 118.819C21.479 119.151 21.8048 119.383 22.1835 119.514C22.5467 119.644 22.9403 119.663 23.3644 119.571C23.7799 119.487 24.1921 119.277 24.601 118.941L28.6771 115.594L29.4641 116.552Z" fill="#111111"/>
<path d="M18.8101 101.28C19.1898 102.026 19.3576 102.794 19.3137 103.583C19.2599 104.377 19.0159 105.113 18.5818 105.792C18.1328 106.465 17.5104 107.004 16.7145 107.409C15.9285 107.809 15.136 107.989 14.3372 107.95C13.5384 107.911 12.8097 107.682 12.1512 107.262C11.478 106.838 10.9465 106.243 10.5568 105.476C10.1671 104.71 9.99676 103.937 10.0457 103.158C10.0897 102.369 10.3338 101.645 10.7779 100.986C11.217 100.318 11.8345 99.7813 12.6304 99.3767C13.4361 98.967 14.2457 98.7841 15.0594 98.8279C15.8633 98.8767 16.5969 99.1157 17.2604 99.5451C17.9188 99.9646 18.4354 100.543 18.8101 101.28ZM17.7047 101.842C17.435 101.311 17.06 100.902 16.5799 100.614C16.0948 100.317 15.5589 100.163 14.9722 100.152C14.3805 100.131 13.7998 100.266 13.2299 100.556C12.66 100.845 12.2141 101.233 11.892 101.718C11.5649 102.194 11.3786 102.715 11.3332 103.282C11.2827 103.84 11.3924 104.384 11.6622 104.914C11.9319 105.445 12.3094 105.859 12.7945 106.156C13.2746 106.444 13.8056 106.6 14.3874 106.626C14.9693 106.652 15.5451 106.52 16.115 106.23C16.6849 105.94 17.1358 105.55 17.4677 105.06C17.7996 104.57 17.9907 104.046 18.0412 103.488C18.0867 102.921 17.9745 102.372 17.7047 101.842Z" fill="#111111"/>
<path d="M15.2128 94.0785L6.68844 96.5018L6.34937 95.309L8.00335 94.8388L8.01659 95.1273C7.40498 95.072 6.87233 94.851 6.41862 94.4643C5.96191 94.067 5.64313 93.5503 5.46229 92.9141C5.29049 92.3098 5.2746 91.7299 5.41464 91.1744C5.55166 90.6083 5.82484 90.1181 6.23419 89.7038C6.62992 89.2819 7.12996 88.9851 7.7343 88.8133L13.2688 87.24L13.6079 88.4327L8.53458 89.8749C8.01506 90.0226 7.60218 90.2431 7.29595 90.5364C6.98671 90.8192 6.78489 91.1573 6.69049 91.5508C6.58248 91.9368 6.59026 92.3471 6.71384 92.7818C6.83741 93.2165 7.04814 93.5748 7.34604 93.8569C7.63333 94.1419 7.98965 94.3271 8.41499 94.4124C8.82972 94.5008 9.29155 94.4726 9.80047 94.328L14.8737 92.8858L15.2128 94.0785Z" fill="#111111"/>
<path d="M12.3785 82.9348L3.57543 83.9559L3.43255 82.7241L12.2357 81.703L12.3785 82.9348ZM1.94948 84.1445L0.142874 84.354L0 83.1222L1.80661 82.9127L1.94948 84.1445Z" fill="#111111"/>
<path d="M11.7954 72.1705C11.7712 72.7322 11.645 73.2287 11.4167 73.6602C11.1775 74.0912 10.8652 74.4252 10.4799 74.6623C10.0945 74.8995 9.65957 75.0076 9.17503 74.9867C8.71251 74.9667 8.29832 74.8496 7.93245 74.6352C7.55558 74.4203 7.24401 74.098 6.99777 73.6681C6.75153 73.2383 6.58736 72.6961 6.50527 72.0416L6.07677 68.5478L7.20002 68.5962L7.59179 71.7906C7.67436 72.4341 7.85814 72.9054 8.14312 73.2045C8.42857 73.4926 8.77503 73.6455 9.18248 73.6631C9.57892 73.6802 9.92145 73.5405 10.2101 73.244C10.4991 72.9365 10.6544 72.535 10.6758 72.0395C10.7019 71.4338 10.598 70.8997 10.3642 70.4373C10.1194 69.9744 9.78223 69.6068 9.35267 69.3345C8.9231 69.0622 8.43852 68.9145 7.89892 68.8912L5.65241 68.7943C5.12382 68.7715 4.68603 68.9457 4.33903 69.3168C3.99203 69.688 3.80523 70.1819 3.77863 70.7986C3.75535 71.3382 3.87258 71.8177 4.1303 72.237C4.37702 72.6559 4.71084 72.9737 5.13177 73.1904L4.47213 74.2873C4.10484 74.106 3.77462 73.8325 3.48148 73.4668C3.18882 73.0901 2.96436 72.6667 2.80812 72.1965C2.64086 71.7259 2.56792 71.2429 2.5893 70.7473C2.61733 70.0976 2.76867 69.5304 3.04334 69.0458C3.31847 68.5502 3.68773 68.1744 4.15111 67.9186C4.60395 67.6513 5.1222 67.5302 5.70585 67.5554L11.7846 67.8176L11.7312 69.0565L9.96372 68.9803L10.1533 68.8064C10.477 68.9748 10.7694 69.2302 11.0304 69.5724C11.2809 69.9032 11.4793 70.2923 11.6255 70.74C11.7611 71.1761 11.8178 71.6529 11.7954 72.1705Z" fill="#111111"/>
<path d="M12.2896 63.306L0.0299158 60.7857L0.279618 59.5711L12.5393 62.0914L12.2896 63.306Z" fill="#111111"/>
<path d="M105.104 129.867L105.604 130.911L100.387 133.414L99.8864 132.371L105.104 129.867Z" fill="#111111"/>
<path d="M20.985 33.2353L20.112 32.4754L23.9114 28.1106L24.7843 28.8704L20.985 33.2353Z" fill="#111111"/>
</svg>
