<svg width="28" height="29" viewBox="0 0 28 29" fill="none" xmlns="http://www.w3.org/2000/svg">
<path d="M19.25 11.5367L8.75 5.48169" stroke="#FAFAFA" stroke-width="2" stroke-linecap="round" stroke-linejoin="round"/>
<path d="M24.5 19.2367V9.90337C24.4996 9.49419 24.3916 9.09231 24.1868 8.73806C23.982 8.3838 23.6877 8.08963 23.3333 7.88504L15.1667 3.21837C14.812 3.01358 14.4096 2.90576 14 2.90576C13.5904 2.90576 13.188 3.01358 12.8333 3.21837L4.66667 7.88504C4.31231 8.08963 4.01798 8.3838 3.81321 8.73806C3.60843 9.09231 3.50042 9.49419 3.5 9.90337V19.2367C3.50042 19.6459 3.60843 20.0478 3.81321 20.402C4.01798 20.7563 4.31231 21.0504 4.66667 21.255L12.8333 25.9217C13.188 26.1265 13.5904 26.2343 14 26.2343C14.4096 26.2343 14.812 26.1265 15.1667 25.9217L23.3333 21.255C23.6877 21.0504 23.982 20.7563 24.1868 20.402C24.3916 20.0478 24.4996 19.6459 24.5 19.2367Z" stroke="#FAFAFA" stroke-width="2" stroke-linecap="round" stroke-linejoin="round"/>
<path d="M3.81494 8.69019L13.9999 14.5819L24.1849 8.69019" stroke="#FAFAFA" stroke-width="2" stroke-linecap="round" stroke-linejoin="round"/>
<path d="M14 26.3301V14.5701" stroke="#FAFAFA" stroke-width="2" stroke-linecap="round" stroke-linejoin="round"/>
</svg>
